<?xml version="1.0" encoding="utf-8"?>
<!-- Generator: Adobe Illustrator 16.0.0, SVG Export Plug-In . SVG Version: 6.00 Build 0)  -->
<!DOCTYPE svg PUBLIC "-//W3C//DTD SVG 1.1//EN" "http://www.w3.org/Graphics/SVG/1.1/DTD/svg11.dtd">
<svg version="1.1" id="Layer_1" xmlns="http://www.w3.org/2000/svg" xmlns:xlink="http://www.w3.org/1999/xlink" x="0px" y="0px"
	 width="170.587px" height="103.939px" viewBox="0 0 170.587 103.939" enable-background="new 0 0 170.587 103.939"
	 xml:space="preserve">
<path d="M35.825,103.107l0.644-10.274c0,0,0.298,0.696-5.212,5.538c-4.176,3.67-8.773,5.568-13.667,5.568
	c-3.88,0-9.449-2.404-12.697-6.074S0,84.929,0,81.414c0-7.25,1.417-12.778,5.947-21.008c4.53-8.228,12.655-18.364,33.178-18.364
	c1.196,0,24.679,1.359,24.679,1.359l-9.81,59.02L35.825,103.107z M41.845,73.905L44.882,54.5
	c-17.168-2.447-22.483,8.183-24.888,12.233c-3.538,5.959-2.784,16.578-0.759,19.361c2.025,2.784,9.637,4.936,13.414,0.634
	C37.934,80.708,38.545,79.051,41.845,73.905"/>
<path d="M104.275,98.245c-5.033,3.881-13.413,5.314-20.88,5.314c-6.09,0-10.808-2.767-14.778-6.319
	c-3.969-3.554-5.954-8.465-5.954-14.737c0-6.96,0.71-14.774,4.408-21.464c3.697-6.688,7.397-10.854,13.667-14.806
	c6.271-3.95,11.355-4.19,17.843-4.19c0.271,0.024,12.276,16.466,12.276,16.466c-5.51-2.683-10.521-3.455-15.076-2.949
	c-3.639,0.405-10.264,4.37-12.386,9.336c-2.119,4.967-4.555,17.657-0.126,22.592c4.606,5.134,16.452,0.761,21.766-1.012
	C105.288,88.879,104.275,98.245,104.275,98.245"/>
<path d="M145.458,101.31c-3.64,1.205-7.211,1.883-10.713,2.03c-5.814,0.245-10.936-0.325-13.428-2.775
	c-2.492-2.454-4.425-5.659-4.556-8.774c-0.081-1.92,0.134-4.894,0.675-8.437l5.814-26.868l-8.346,0.208l31.891-29.696l-2.531,15.044
	l13.16-0.196l-2.361,14.341l-14.727,0.117c0,0-4.174,21.328-4.846,25.699c-0.673,4.372,0.287,6.97,1.584,6.915
	c2.123-0.09,6.514-0.334,10.227-0.334L145.458,101.31z"/>
<polygon points="88.583,20.754 113.556,32.903 170.587,0 111.849,55.074 "/>
</svg>
