<?xml version="1.0" encoding="utf-8"?>
<!-- Generator: Adobe Illustrator 16.0.0, SVG Export Plug-In . SVG Version: 6.00 Build 0)  -->
<!DOCTYPE svg PUBLIC "-//W3C//DTD SVG 1.1//EN" "http://www.w3.org/Graphics/SVG/1.1/DTD/svg11.dtd">
<svg version="1.1" id="Layer_1" xmlns="http://www.w3.org/2000/svg" xmlns:xlink="http://www.w3.org/1999/xlink" x="0px" y="0px"
	 width="238.279px" height="37.517px" viewBox="0 0 238.279 37.517" enable-background="new 0 0 238.279 37.517"
	 xml:space="preserve">
<g>
	<rect x="3.92" y="20.652" width="88.07" height="3"/>
</g>
<g>
	<rect x="147.955" y="20.652" width="88.07" height="3"/>
</g>
<g>
	<polygon points="231.968,28.476 229.847,26.355 234.037,22.166 229.377,17.507 231.499,15.386 238.279,22.166 	"/>
</g>
<g>
	<polygon points="2.59,28.476 0.469,26.355 4.658,22.166 0,17.507 2.121,15.386 8.9,22.166 	"/>
</g>
<g>
	<polygon points="9.904,28.476 7.783,26.355 11.972,22.166 7.314,17.507 9.435,15.386 16.214,22.166 	"/>
</g>
<g>
	<path d="M115.648,37.517l-14.487-16.233c-1.544-1.752-2.311-3.991-2.165-6.312c0.146-2.322,1.188-4.447,2.933-5.985
		c1.591-1.403,3.635-2.176,5.755-2.176c2.501,0,4.883,1.075,6.535,2.95l2.766,3.099l11.833-10.673
		C130.423,0.772,132.467,0,134.586,0c2.501,0,4.883,1.075,6.535,2.949c1.538,1.745,2.306,3.984,2.159,6.306
		c-0.146,2.322-1.188,4.447-2.934,5.985L115.648,37.517z M107.684,9.811c-1.389,0-2.728,0.507-3.771,1.426
		c-1.144,1.008-1.827,2.401-1.923,3.923c-0.096,1.521,0.407,2.989,1.415,4.133l12.474,13.976L138.351,13
		c1.157-1.02,1.84-2.413,1.936-3.934s-0.407-2.989-1.415-4.133C137.788,3.705,136.226,3,134.586,3c-1.389,0-2.728,0.506-3.771,1.426
		l-14.061,12.682l-4.78-5.357C110.885,10.515,109.324,9.811,107.684,9.811z"/>
</g>
</svg>
