<?xml version="1.0" encoding="utf-8"?>
<!-- Generator: Adobe Illustrator 16.0.0, SVG Export Plug-In . SVG Version: 6.00 Build 0)  -->
<!DOCTYPE svg PUBLIC "-//W3C//DTD SVG 1.1//EN" "http://www.w3.org/Graphics/SVG/1.1/DTD/svg11.dtd">
<svg version="1.1" id="Layer_1" xmlns="http://www.w3.org/2000/svg" xmlns:xlink="http://www.w3.org/1999/xlink" x="0px" y="0px"
	 width="39.602px" height="58.059px" viewBox="0 0 39.602 58.059" enable-background="new 0 0 39.602 58.059" xml:space="preserve">
<g>
	<path d="M22.512,58.059c-1.676,0-2.948-0.829-4.346-2.073c-0.717-0.64-3.28-2.854-6.101-5.287
		c-3.602-3.109-7.683-6.635-8.787-7.632c-1.828-1.649-2.334-3.251-1.549-4.896c0.458-0.961,1.755-1.659,3.084-1.659
		c0.651,0,1.289,0.17,1.842,0.493l1.046,0.614c1.587,0.935,3.562,2.097,4.956,2.819c0.518,0.271,1.188,0.02,1.58-0.536
		c0.19-0.27,0.468-0.834,0.199-1.597c-0.817-2.312-7.329-23.062-7.71-24.402c-0.512-1.787,0.377-3.477,2.159-4.105
		c1.52-0.537,3.579,0.407,4.414,2.004C13.885,12.92,18.883,25,20.167,28.108c2.17,0.134,9.199,0.568,10.382,0.678
		c1.428,0.132,5.146,0.475,6.525,6.326c0.988,4.195,1.647,8.001,2.042,10.275c0.101,0.582,0.184,1.062,0.251,1.424
		c0.26,1.399,0.949,5.117-2.59,6.508c-2.428,0.955-10.812,4.052-12.925,4.569C23.383,58.003,22.944,58.059,22.512,58.059z
		 M4.814,38.512c-0.701,0-1.206,0.378-1.279,0.521c-0.196,0.409-0.523,1.097,1.084,2.549c1.088,0.981,5.161,4.499,8.754,7.602
		c2.831,2.444,5.405,4.667,6.125,5.31c1.661,1.479,2.512,1.784,3.879,1.452c1.862-0.456,10.041-3.453,12.669-4.486
		c1.668-0.655,1.755-2.124,1.354-4.281c-0.068-0.367-0.152-0.855-0.255-1.447c-0.392-2.252-1.044-6.021-2.02-10.157
		c-1.049-4.451-3.446-4.674-4.734-4.792c-1.368-0.126-10.875-0.707-10.972-0.714l-0.625-0.037l-0.238-0.579
		c-1.786-4.326-6.529-15.765-7.029-16.722c-0.385-0.736-1.384-1.256-1.975-1.045c-0.378,0.134-1.221,0.563-0.903,1.672
		c0.38,1.334,6.859,21.984,7.673,24.285c0.417,1.177,0.252,2.422-0.452,3.417c-0.962,1.359-2.75,1.873-4.134,1.157
		c-1.441-0.748-3.442-1.926-5.049-2.872l-1.04-0.611C5.397,38.586,5.117,38.512,4.814,38.512z"/>
</g>
<g>
	<rect x="0.166" y="7.628" transform="matrix(-0.9096 -0.4155 0.4155 -0.9096 1.9834 17.6869)" width="5.5" height="2"/>
</g>
<g>
	<rect x="11.568" y="2.279" transform="matrix(-0.9095 -0.4157 0.4157 -0.9095 21.9087 14.8264)" width="1.999" height="5.5"/>
</g>
<g>
	<rect x="15.429" y="8.136" transform="matrix(-0.3496 -0.9369 0.9369 -0.3496 12.6844 29.0603)" width="2" height="3.982"/>
</g>
<g>
	<rect x="2.803" y="3.039" transform="matrix(-0.3492 -0.937 0.937 -0.3492 5.3099 11.7654)" width="7.875" height="2"/>
</g>
<g>
	<rect x="1.958" y="13.158" transform="matrix(-0.3496 -0.9369 0.9369 -0.3496 -10.201 23.2165)" width="2" height="3.983"/>
</g>
</svg>
