<?xml version="1.0" encoding="utf-8"?>
<!-- Generator: Adobe Illustrator 16.0.0, SVG Export Plug-In . SVG Version: 6.00 Build 0)  -->
<!DOCTYPE svg PUBLIC "-//W3C//DTD SVG 1.1//EN" "http://www.w3.org/Graphics/SVG/1.1/DTD/svg11.dtd">
<svg version="1.1" id="Layer_1" xmlns="http://www.w3.org/2000/svg" xmlns:xlink="http://www.w3.org/1999/xlink" x="0px" y="0px"
	 width="204.899px" height="62.646px" viewBox="0 0 204.899 62.646" enable-background="new 0 0 204.899 62.646"
	 xml:space="preserve">
<path d="M57.011,0c-1.124,1.25-3.839,3.875-7.653,4.308c-3.533,0.401-6.845,0.246-11.045,0.504
	c-3.806,0.227-9.072,0.909-11.182,1.375C12.282,8.546,0,18.737,0,35.38c0,16.921,10.655,27.267,27.497,27.267
	c4.314,0,7.683-0.579,11.32-1.42c11.595-2.627,11.595-4.675,11.595-4.675s-1.192-0.52-1.192-4.583V40.146
	c-0.088-0.93,0.444-1.191,1.375-1.191h3.712v-2.795H31.989v2.795h4.582c2.703,0,3.208,0.33,3.208,11.503v6.783
	c-2.79,1.354-5.952,1.925-9.165,1.925c-12.975,0-19.516-10.715-20.623-21.677c-0.006-0.053-0.035-0.121-0.046-0.185
	c-0.009-0.154-0.035-0.3-0.046-0.458c-0.229-4.333,3.082-7.646,7.379-7.837c1.089-0.053,4.262-0.386,14.023,0.504
	c10.928,0.998,17.983-5.548,20.623-11.64C54.443,12.031,57.011,0,57.011,0 M53.665,5.866c-1.809,5.954-3.757,7.989-8.065,7.837
	c-2.803-0.108-4.602-0.792-7.333-0.917c2.779-0.72,5.028-0.938,8.341-2.016C49.44,9.846,51.891,8.383,53.665,5.866 M33.913,14.665
	c3.041,0.107,6.657,1.015,8.158,1.283c4.874,0.873,7.023-0.051,7.837-0.55c-1.253,3.777-2.978,5.179-6.187,5.179
	c-3.111,0-5.874-0.436-8.662-1.237c-2.904-0.836-6.746-1.879-9.486-1.879c0.665-0.543,3.884-2.162,5.591-2.567
	C31.957,14.707,32.9,14.629,33.913,14.665 M23.19,20.164c0.539-0.045,1.127-0.042,1.741,0c1.837,0.134,4.482,0.77,5.637,1.1
	c5.657,1.643,9.327,1.971,11.778,1.971c0.678,0,1.259-0.009,1.741-0.046c-2.007,1.546-3.58,1.879-5.957,2.521
	c-2.371,0.638-7.579,0.423-9.853,0.183c-2.274-0.236-9.573-0.642-11.595-0.642l-0.504-0.045
	C17.382,22.811,19.415,20.484,23.19,20.164 M70.943,23.647c-5.076,0.677-10.233,1.001-15.307,1.421v2.567h3.529
	c2.876,0,2.887,3.691,2.887,12.236v17.276c0,1.276-0.579,1.375-1.512,1.375h-3.071v2.521h20.577v-2.521h-4.399
	c-2.372,0-2.704-1.958-2.704-11.777V34.28c2.2-2.11,4.623-4.033,7.836-4.033c4.402,0,3.302,2.887,4.996,2.887
	c0.847,0,1.034-0.631,1.283-2.246l1.008-5.453c-1.105-1.1-2.603-1.788-4.124-1.788c-4.229,0-6.772,3.126-10.999,7.608V23.647z
	 M106.002,23.647c-13.452,0-18.562,9.382-18.562,19.89c0,10.41,5.835,18.561,17.002,18.561c6.053,0,11.907-2.25,16.361-6.371
	l-1.237-1.924c-3.108,2.433-6.418,3.849-10.449,3.849c-9.157,0-12.093-7.728-12.511-15.627h23.739c0,0,0.471-4.646-0.413-7.47
	C118.34,29.459,113.512,23.647,106.002,23.647 M143.856,23.647c-13.45,0-18.515,9.382-18.515,19.89
	c0,10.41,5.786,18.561,16.957,18.561c6.047,0,11.952-2.25,16.406-6.371l-1.283-1.924c-3.109,2.433-6.372,3.849-10.403,3.849
	c-9.153,0-12.091-7.728-12.511-15.627h23.738c0,0,0.424-4.646-0.457-7.47C156.2,29.459,151.368,23.647,143.856,23.647
	 M175.432,23.647c-5.071,0.677-10.237,1.001-15.307,1.421v2.567h3.574c2.876,0,2.842,3.691,2.842,12.236v17.276
	c0,1.276-0.583,1.375-1.513,1.375h-3.024v2.521h19.109v-2.521h-2.978c-2.369,0-2.704-1.958-2.704-11.777V32.858
	c2.462-2.272,5.431-3.895,8.386-3.895c6.269,0,6.279,4.837,6.279,10.586v17.598c0,1.276-0.631,1.375-1.559,1.375h-2.338v2.521
	h18.698v-2.521h-3.208c-2.37,0-2.703-1.958-2.703-11.777V35.334c0-7.696-3.581-11.687-10.266-11.687
	c-4.574,0-8.719,2.721-13.29,6.096V23.647z M104.902,26.443c3.877,0,6.805,4.872,7.517,8.57c0.325,1.668,0.411,3.31,0.411,4.216
	H96.561l-0.046-0.183C96.346,35.013,99.527,26.443,104.902,26.443 M142.756,26.443c3.875,0,6.854,4.872,7.562,8.57
	c0.322,1.668,0.366,3.31,0.366,4.216h-16.269v-0.183C134.252,35.013,137.379,26.443,142.756,26.443"/>
</svg>
