<?xml version="1.0" encoding="utf-8"?>
<!-- Generator: Adobe Illustrator 16.0.0, SVG Export Plug-In . SVG Version: 6.00 Build 0)  -->
<!DOCTYPE svg PUBLIC "-//W3C//DTD SVG 1.1//EN" "http://www.w3.org/Graphics/SVG/1.1/DTD/svg11.dtd">
<svg version="1.1" id="Layer_1" xmlns="http://www.w3.org/2000/svg" xmlns:xlink="http://www.w3.org/1999/xlink" x="0px" y="0px"
	 width="44.435px" height="46.559px" viewBox="0 0 44.435 46.559" enable-background="new 0 0 44.435 46.559" xml:space="preserve">
<g>
	<path d="M5.314,25.592l4.975,4.799L35.548,5.133c-1.183-0.333-2.495-0.514-3.946-0.514c-3.944,0-7.75,3.177-9.668,5.07
		l-0.703,0.694l-0.703-0.694c-1.918-1.893-5.724-5.07-9.668-5.07C3.958,4.619,0,8.486,0,15.23C0,20.764,5.262,25.545,5.314,25.592"
		/>
</g>
<g>
	<path d="M44.138,21.061c0-5.325-2.478-8.847-6.914-10.097L11.966,36.222L22.51,46.393c0.146,0.146,0.311,0.166,0.397,0.166
		c0.086,0,0.251-0.02,0.385-0.154l15.471-14.898C40.062,30.263,44.138,25.981,44.138,21.061"/>
</g>
<g>
	<rect x="22.061" y="-7.853" transform="matrix(0.7071 0.7071 -0.7071 0.7071 21.8676 -10.0465)" width="2" height="58.453"/>
</g>
</svg>
