<?xml version="1.0" encoding="utf-8"?>
<!-- Generator: Adobe Illustrator 16.0.0, SVG Export Plug-In . SVG Version: 6.00 Build 0)  -->
<!DOCTYPE svg PUBLIC "-//W3C//DTD SVG 1.1//EN" "http://www.w3.org/Graphics/SVG/1.1/DTD/svg11.dtd">
<svg version="1.1" id="Layer_1" xmlns="http://www.w3.org/2000/svg" xmlns:xlink="http://www.w3.org/1999/xlink" x="0px" y="0px"
	 width="42.461px" height="36.109px" viewBox="0 0 42.461 36.109" enable-background="new 0 0 42.461 36.109" xml:space="preserve">
<path d="M10.859,0C3.958,0,0,3.868,0,10.611c0,5.534,5.262,10.315,5.314,10.362l15.519,14.971c0.146,0.146,0.312,0.166,0.397,0.166
	c0.087,0,0.251-0.021,0.385-0.153l15.47-14.9c1.3-1.243,5.376-5.525,5.376-10.445C42.461,3.868,38.503,0,31.602,0
	c-3.944,0-7.75,3.177-9.668,5.07L21.23,5.764L20.528,5.07C18.61,3.177,14.804,0,10.859,0"/>
</svg>
