<?xml version="1.0" encoding="utf-8"?>
<!-- Generator: Adobe Illustrator 16.0.0, SVG Export Plug-In . SVG Version: 6.00 Build 0)  -->
<!DOCTYPE svg PUBLIC "-//W3C//DTD SVG 1.1//EN" "http://www.w3.org/Graphics/SVG/1.1/DTD/svg11.dtd">
<svg version="1.1" id="Layer_1" xmlns="http://www.w3.org/2000/svg" xmlns:xlink="http://www.w3.org/1999/xlink" x="0px" y="0px"
	 width="44.461px" height="38.109px" viewBox="0 0 44.461 38.109" enable-background="new 0 0 44.461 38.109" xml:space="preserve">
<g>
	<path d="M22.23,38.11c-0.415,0-0.807-0.162-1.103-0.458L5.62,22.693C5.059,22.179,0,17.373,0,11.611C0,4.341,4.433,0,11.859,0
		c4.301,0,8.344,3.357,10.372,5.359l0.001,0C24.258,3.357,28.301,0,32.602,0c7.426,0,11.859,4.341,11.859,11.612
		c0,5.318-4.352,9.893-5.685,11.168L23.309,37.677C23.027,37.954,22.641,38.11,22.23,38.11z M11.859,2C5.501,2,2,5.413,2,11.611
		c0,4.992,4.784,9.437,4.987,9.623l15.244,14.704l15.161-14.602c1.19-1.139,5.069-5.2,5.069-9.725C42.461,5.413,38.96,2,32.602,2
		c-3.586,0-7.156,2.996-8.966,4.782L22.229,8.17l-1.405-1.389C19.016,4.996,15.446,2,11.859,2z"/>
</g>
</svg>
