<?xml version="1.0" encoding="utf-8"?>
<!-- Generator: Adobe Illustrator 16.0.0, SVG Export Plug-In . SVG Version: 6.00 Build 0)  -->
<!DOCTYPE svg PUBLIC "-//W3C//DTD SVG 1.1//EN" "http://www.w3.org/Graphics/SVG/1.1/DTD/svg11.dtd">
<svg version="1.1" id="Layer_1" xmlns="http://www.w3.org/2000/svg" xmlns:xlink="http://www.w3.org/1999/xlink" x="0px" y="0px"
	 width="63px" height="63px" viewBox="0 0 63 63" enable-background="new 0 0 63 63" xml:space="preserve">
<g>
	<path fill="#FFFFFF" d="M61.5,31.5c0,16.568-13.431,30-30,30s-30-13.432-30-30c0-16.569,13.431-30,30-30S61.5,14.931,61.5,31.5"/>
</g>
<g>
	<path d="M31.5,63C14.131,63,0,48.869,0,31.5S14.131,0,31.5,0S63,14.131,63,31.5S48.869,63,31.5,63z M31.5,3
		C15.785,3,3,15.785,3,31.5S15.785,60,31.5,60S60,47.215,60,31.5S47.215,3,31.5,3z"/>
</g>
<g>
	<path d="M35.738,24.241l-2.93,12.475c-0.125,0.583-0.229,1.128-0.312,1.632c-0.084,0.505-0.125,0.981-0.125,1.43
		c0,0.469,0.097,0.828,0.289,1.078s0.465,0.375,0.82,0.375c0.333,0,0.641-0.062,0.922-0.187s0.604-0.309,0.969-0.548l0.766,1.078
		c-0.25,0.271-0.536,0.539-0.859,0.806c-0.323,0.265-0.688,0.503-1.094,0.711s-0.852,0.375-1.336,0.5s-1.019,0.187-1.602,0.187
		c-1.229,0-2.172-0.289-2.829-0.867c-0.655-0.578-0.983-1.383-0.983-2.414c0-0.458,0.042-1.005,0.125-1.641
		c0.083-0.635,0.213-1.359,0.391-2.172l1.961-8.021c0.031-0.136,0.06-0.275,0.086-0.422c0.025-0.146,0.049-0.284,0.07-0.414
		c0.02-0.13,0.036-0.241,0.047-0.336c0.01-0.094,0.015-0.161,0.015-0.203c0-0.292-0.03-0.525-0.093-0.702
		c-0.062-0.178-0.162-0.313-0.297-0.407c-0.136-0.093-0.31-0.156-0.523-0.188c-0.215-0.03-0.472-0.047-0.773-0.047h-0.578
		l0.281-1.703H35.738z M33.52,21.366c-0.354,0-0.684-0.039-0.984-0.117c-0.303-0.077-0.565-0.199-0.789-0.366
		c-0.225-0.167-0.401-0.375-0.531-0.625c-0.131-0.25-0.195-0.542-0.195-0.875c0-0.47,0.081-0.868,0.242-1.196
		c0.16-0.328,0.378-0.598,0.648-0.812c0.271-0.214,0.588-0.369,0.953-0.469c0.364-0.099,0.744-0.147,1.14-0.147
		c0.345,0,0.669,0.036,0.978,0.108c0.307,0.073,0.578,0.192,0.812,0.359c0.235,0.167,0.423,0.378,0.563,0.633
		s0.211,0.561,0.211,0.914c0,0.438-0.086,0.821-0.258,1.149c-0.172,0.327-0.401,0.598-0.688,0.812
		c-0.287,0.214-0.612,0.372-0.977,0.478C34.279,21.314,33.904,21.366,33.52,21.366"/>
</g>
</svg>
