<?xml version="1.0" encoding="utf-8"?>
<!-- Generator: Adobe Illustrator 16.0.0, SVG Export Plug-In . SVG Version: 6.00 Build 0)  -->
<!DOCTYPE svg PUBLIC "-//W3C//DTD SVG 1.1//EN" "http://www.w3.org/Graphics/SVG/1.1/DTD/svg11.dtd">
<svg version="1.1" id="Layer_1" xmlns="http://www.w3.org/2000/svg" xmlns:xlink="http://www.w3.org/1999/xlink" x="0px" y="0px"
	 width="199.276px" height="83.604px" viewBox="0 0 199.276 83.604" enable-background="new 0 0 199.276 83.604"
	 xml:space="preserve">
<rect x="1.025" width="10.271" height="38.527"/>
<path d="M33.1,38.528V22.562c0-1.93-0.291-3.353-0.864-4.229c-0.172-0.261-0.701-1.062-2.718-1.062
	c-1.649,0-2.779,0.422-3.457,1.292c-0.736,0.941-1.125,2.693-1.125,5.062v14.901h-9.834V9.994h9.469v1.797
	c0.642-0.547,1.353-1,2.124-1.354c1.66-0.766,3.386-1.153,5.131-1.153c2.145,0,3.953,0.296,5.371,0.88
	c1.465,0.602,2.641,1.456,3.501,2.541c0.836,1.063,1.43,2.36,1.763,3.856c0.317,1.41,0.475,2.984,0.475,4.682v17.286H33.1z"/>
<path d="M58.74,38.781c-1.173,0-2.299-0.08-3.344-0.24c-1.14-0.174-2.162-0.521-3.042-1.03c-0.946-0.545-1.701-1.328-2.239-2.326
	c-0.529-0.977-0.797-2.238-0.797-3.745V17.12h-4.364V9.994h4.364V2.131h9.51v7.863h5.274v7.126h-5.274v11.835
	c0,1.329,0.268,1.615,0.27,1.619c0.005,0.003,0.291,0.271,1.619,0.271c0.37,0,0.723-0.015,1.063-0.046
	c0.329-0.029,0.644-0.074,0.944-0.134l1.378-0.276v7.963l-0.964,0.161c-0.649,0.108-1.369,0.181-2.166,0.217
	C60.211,38.765,59.467,38.781,58.74,38.781"/>
<path d="M81.237,39.188c-2.305,0-4.419-0.36-6.287-1.072c-1.893-0.721-3.521-1.761-4.836-3.094c-1.31-1.325-2.333-2.925-3.042-4.755
	c-0.703-1.812-1.058-3.824-1.058-5.98c0-2.091,0.365-4.072,1.086-5.888c0.726-1.827,1.777-3.436,3.125-4.778
	c1.345-1.34,2.967-2.409,4.826-3.178c1.862-0.77,3.942-1.16,6.186-1.16c2.519,0,4.76,0.479,6.659,1.425
	c1.895,0.941,3.474,2.227,4.692,3.817c1.2,1.562,2.076,3.369,2.611,5.367c0.526,1.971,0.714,4.055,0.566,6.194l-0.076,1.077H76.078
	c0.208,1.399,0.67,2.437,1.379,3.092c0.895,0.828,2.255,1.248,4.044,1.248c1.282,0,2.342-0.289,3.24-0.885
	c0.86-0.568,1.379-1.135,1.546-1.683l0.254-0.378h8.895l-0.206,1.054c-1.143,3.39-2.95,5.867-5.375,7.362
	C87.472,38.443,84.574,39.188,81.237,39.188 M85.488,20.292c-0.311-0.939-0.726-1.688-1.242-2.23
	c-0.66-0.692-1.744-1.043-3.221-1.043c-1.004,0-1.829,0.153-2.451,0.457c-0.636,0.312-1.148,0.692-1.515,1.137
	c-0.384,0.462-0.644,0.929-0.795,1.428c-0.025,0.085-0.049,0.17-0.073,0.252H85.488z"/>
<path d="M166.237,39.188c-2.305,0-4.419-0.36-6.287-1.072c-1.893-0.721-3.521-1.761-4.836-3.094
	c-1.311-1.325-2.333-2.925-3.042-4.755c-0.703-1.812-1.058-3.824-1.058-5.98c0-2.091,0.365-4.072,1.086-5.888
	c0.726-1.827,1.776-3.436,3.125-4.778c1.345-1.34,2.967-2.409,4.826-3.178c1.861-0.77,3.941-1.16,6.186-1.16
	c2.52,0,4.76,0.479,6.658,1.425c1.896,0.941,3.475,2.227,4.693,3.817c1.199,1.562,2.075,3.369,2.61,5.367
	c0.526,1.971,0.714,4.055,0.565,6.194l-0.075,1.077h-19.611c0.208,1.399,0.67,2.437,1.379,3.092
	c0.896,0.828,2.255,1.248,4.044,1.248c1.282,0,2.342-0.289,3.24-0.885c0.859-0.568,1.379-1.135,1.546-1.683l0.254-0.378h8.896
	l-0.207,1.054c-1.143,3.39-2.949,5.867-5.375,7.362C172.472,38.443,169.574,39.188,166.237,39.188 M170.488,20.292
	c-0.312-0.939-0.726-1.688-1.242-2.23c-0.659-0.692-1.744-1.043-3.221-1.043c-1.005,0-1.829,0.153-2.451,0.457
	c-0.636,0.312-1.147,0.692-1.515,1.137c-0.385,0.462-0.645,0.929-0.795,1.428c-0.025,0.085-0.049,0.17-0.073,0.252H170.488z"/>
<path d="M98.272,38.528V9.994h9.154v2.397c0.505-0.517,1.062-0.976,1.662-1.37c0.828-0.546,1.727-0.976,2.669-1.277
	c0.957-0.305,1.961-0.461,2.987-0.461c0.58,0,1.219,0.103,1.896,0.302l0.829,0.243v8.965l-1.378-0.275
	c-0.311-0.062-0.682-0.116-1.115-0.162c-0.43-0.046-0.847-0.068-1.248-0.068c-1.137,0-2.096,0.184-2.846,0.544
	c-0.75,0.361-1.331,0.833-1.777,1.443c-0.464,0.635-0.802,1.389-1,2.244c-0.216,0.928-0.326,1.949-0.326,3.037v12.973H98.272z"/>
<path d="M138.097,38.528V22.562c0-1.93-0.297-3.353-0.879-4.229c-0.176-0.261-0.713-1.062-2.766-1.062
	c-1.678,0-2.827,0.422-3.516,1.292c-0.75,0.941-1.146,2.693-1.146,5.062v14.901h-10.004V9.994h9.632v1.797
	c0.654-0.547,1.377-1,2.161-1.354c1.688-0.766,3.445-1.153,5.22-1.153c2.183,0,4.021,0.296,5.465,0.88
	c1.49,0.602,2.687,1.456,3.561,2.541c0.852,1.063,1.455,2.36,1.794,3.856c0.322,1.41,0.483,2.984,0.483,4.682v17.286H138.097z"/>
<path d="M193.915,38.781c-1.174,0-2.299-0.08-3.345-0.24c-1.14-0.174-2.161-0.521-3.042-1.03c-0.945-0.545-1.701-1.328-2.238-2.326
	c-0.529-0.977-0.797-2.238-0.797-3.745V17.12h-4.365V9.994h4.365V2.131h9.51v7.863h5.273v7.126h-5.273v11.835
	c0,1.329,0.268,1.615,0.27,1.619c0.005,0.003,0.291,0.271,1.619,0.271c0.369,0,0.723-0.015,1.062-0.046
	c0.33-0.029,0.645-0.074,0.944-0.134l1.378-0.276v7.963l-0.964,0.161c-0.649,0.108-1.369,0.181-2.166,0.217
	C195.386,38.765,194.642,38.781,193.915,38.781"/>
<polygon points="14.255,44.802 22.431,66.76 22.538,66.76 30.101,44.802 43.705,44.802 43.705,83.604 33.068,83.604 33.068,56.104 
	34.787,56.104 25.468,83.604 19.024,83.604 9.703,56.377 9.986,56.377 9.986,83.604 0,83.604 0,44.802 "/>
<path d="M72.286,44.803l12.886,38.802H73.87l-2.018-7.203H58.799l-2.982,7.203H45.292l13.778-38.802H72.286z M69.103,68.588
	l-3.974-14.237l0.282,0.016l-4.955,14.238L69.103,68.588z"/>
<path d="M149.999,44.803l12.886,38.802h-11.302l-2.018-7.203h-13.054l-2.981,7.203h-10.526l13.778-38.802H149.999z M146.815,68.588
	l-3.975-14.237l0.281,0.016l-4.954,14.238L146.815,68.588z"/>
<polygon points="99.059,44.802 112.329,67.984 112.436,44.802 121.635,44.802 121.635,83.604 110.78,83.604 96.086,57.627 
	95.979,57.627 95.979,83.604 86.903,83.604 86.903,44.802 "/>
</svg>
