<?xml version="1.0" encoding="utf-8"?>
<!-- Generator: Adobe Illustrator 16.0.0, SVG Export Plug-In . SVG Version: 6.00 Build 0)  -->
<!DOCTYPE svg PUBLIC "-//W3C//DTD SVG 1.1//EN" "http://www.w3.org/Graphics/SVG/1.1/DTD/svg11.dtd">
<svg version="1.1" id="Layer_1" xmlns="http://www.w3.org/2000/svg" xmlns:xlink="http://www.w3.org/1999/xlink" x="0px" y="0px"
	 width="194.143px" height="87.219px" viewBox="0 0 194.143 87.219" enable-background="new 0 0 194.143 87.219"
	 xml:space="preserve">
<polygon points="0,40.394 0,86.346 23.739,86.455 23.956,78.942 8.167,78.833 8.167,40.285 "/>
<path d="M27.675,53.676l2.405,6.463c3.503-1.18,6.954-2.396,10.751-2.247c4.707,0.396,7.803,2.364,7.561,8.194l-0.105,21.021
	l7.716-0.023l-0.098-24.899c0.14-3.892-2.989-7.591-5.354-8.916C45.612,49.947,35.895,50.286,27.675,53.676"/>
<path d="M60.656,37.999V71.76c-6.608-3.023-11.875-6.803-23.42-7.084c-7.943,0.371-12.676,4.369-12.735,11.764
	c0.015,8.104,5.963,10.802,11.657,10.779c7.597-0.054,9.223-6.568,11.1-10.021c-14.165,13.341-24.278-7.071-8.269-6.965
	c10.264-0.508,15.167,3.982,21.335,7.297l12.309,7.949c3.915,1.754,5.055,1.713,9.026,1.74c10.041-0.072,15.575-9.503,15.566-18.184
	c0.077-9.592-4.486-14.323-8.529-16.241c-7.294-3.556-16.701-1.099-20.067,5.248l-0.131-19.937L60.656,37.999z M79.693,57.272
	c5.32,0,9.643,5.422,9.678,12.143v0.083c0,6.753-4.333,12.226-9.678,12.226c-5.345,0-9.678-5.473-9.678-12.226
	S74.348,57.272,79.693,57.272"/>
<path d="M117.317,50.852c-10.305,0-18.658,8.125-18.658,18.16s8.354,18.172,18.658,18.172s18.658-8.137,18.658-18.172v-0.118
	C135.907,58.906,127.573,50.852,117.317,50.852 M117.104,57.84c5.832,0,10.574,5.044,10.613,11.289v0.072
	c0,6.275-4.754,11.36-10.613,11.36c-5.86,0-10.603-5.085-10.603-11.36S111.244,57.84,117.104,57.84"/>
<polygon points="174.434,51.392 174.651,86.672 182.6,86.672 182.432,51.581 "/>
<polygon points="161.965,51.283 162.183,86.564 170.132,86.564 170.058,51.377 "/>
<path d="M181.621,59.559c2.261-3.729,5.073-8.581,12.522-8.602l-0.218,8.492c-5.928-0.463-10.551,3.078-12.414,10.454"/>
<path d="M138.765,51.283l8.058,0.109l0.109,21.996c0.683,8.711,13.419,8.989,15.463-0.435l0.109,8.602l-0.327-0.219
	c-6.829,9.528-23.513,5.677-23.194-5.443L138.765,51.283z"/>
<polygon points="60.817,51.392 61.023,86.672 68.548,86.672 68.033,51.392 "/>
<path d="M46.575,38.338c-0.026-1.582-0.527-3.321,1.089-4.356c9.795-7.725,18.843-12.668,27.767-15.462
	c10.879-2.556,23.318-4.668,36.806-6.643c11.047-1.841,20.796-4.487,26.679-10.345l0.108,0.327c-3.142,2.372,1.49,1.26-9.582,7.187
	c-7.213,3.642-22.017,5.703-35.935,7.949c-6.762,1.033-11.566,2.392-16.661,3.702C60.884,26.259,56.35,32.307,47.119,38.12"/>
<path d="M64.978,28.755l6.86-3.811c5.567,4.027,12.631,10.581,10.018,13.067C80.023,38.795,70.759,32.125,64.978,28.755z"/>
<path d="M63.433,23.69l7.136-3.266c0.579-7.132-0.398-16.763-4.585-15.814C64.266,5.621,64.146,17.036,63.433,23.69z"/>
<path d="M74.258,19.907l7.136-3.266c0.483-6.587-0.589-16.148-4.585-15.814C75.091,1.838,74.971,13.253,74.258,19.907z"/>
<path d="M84.52,17.642l6.988-2.427C92.933,9.07,93.794,0.233,89.792,0C87.946,0.717,86.183,11.465,84.52,17.642z"/>
<path d="M95.625,14.927l5.681-1.229c1.427-6.145,2.179-11.606-1.062-12.711C98.398,1.705,97.289,8.75,95.625,14.927"/>
<path d="M105.737,13.076l4.426-0.97c1.111-4.849,1.697-9.158-0.826-10.03C107.898,2.642,107.033,8.202,105.737,13.076"/>
<path d="M114.012,12.585l3.35-0.845c0.843-4.225,1.285-7.98-0.625-8.739C115.649,3.495,114.994,8.338,114.012,12.585"/>
<path d="M120.764,11.497l2.633-0.711c0.662-3.553,1.01-6.71-0.492-7.349C122.049,3.852,121.535,7.926,120.764,11.497"/>
<path d="M126.971,9.7l1.916-0.547c0.481-2.737,0.734-5.17-0.358-5.662C127.907,3.811,127.532,6.949,126.971,9.7"/>
<path d="M131.872,7.25l1.557-0.403c0.392-2.017,0.598-3.81-0.291-4.172C132.631,2.91,132.327,5.223,131.872,7.25"/>
<path d="M75.084,23.289l7.72-2.368c5.489,4.22,12.008,10.669,8.424,14.148C89.316,35.633,80.432,27.311,75.084,23.289z"/>
<path d="M86.837,20.476l6.81-1.171c3.923,3.905,8.424,10.143,4.835,12.192C96.78,31.637,90.675,24.216,86.837,20.476z"/>
<path d="M96.687,18.321l6.232-0.474c3.201,3.841,6.723,9.826,3.316,11.361C104.69,29.189,99.825,22.005,96.687,18.321"/>
<path d="M105.903,16.917l5.398-0.406c2.772,3.294,5.824,8.427,2.873,9.744C112.836,26.239,108.621,20.078,105.903,16.917"/>
<path d="M113.526,15.655l4.979-0.76c2.822,2.761,6.041,7.155,3.401,8.555C120.663,23.535,116.288,18.299,113.526,15.655"/>
<path d="M121.434,14.103l4.116-1.047c2.599,2.009,5.666,5.318,3.567,6.687C128.083,19.917,123.972,16.022,121.434,14.103"/>
<path d="M127.819,11.677l2.892-0.985c2.05,1.316,4.442,3.455,3.168,4.678C133.224,15.675,129.821,12.934,127.819,11.677"/>
<path d="M132.958,9.446l1.945-1.146c1.477,0.913,3.199,2.395,2.281,3.243C136.713,11.755,134.399,10.318,132.958,9.446"/>
</svg>
