<?xml version="1.0" encoding="utf-8"?>
<!-- Generator: Adobe Illustrator 16.0.0, SVG Export Plug-In . SVG Version: 6.00 Build 0)  -->
<!DOCTYPE svg PUBLIC "-//W3C//DTD SVG 1.1//EN" "http://www.w3.org/Graphics/SVG/1.1/DTD/svg11.dtd">
<svg version="1.1" id="Layer_1" xmlns="http://www.w3.org/2000/svg" xmlns:xlink="http://www.w3.org/1999/xlink" x="0px" y="0px"
	 width="416.16px" height="91.047px" viewBox="0 0 416.16 91.047" enable-background="new 0 0 416.16 91.047" xml:space="preserve">
<path d="M27.609,37.81c13.256,0,19.536,7.575,19.536,7.575l-5.582,8.672c0,0-5.283-5.481-13.257-5.481
	c-9.37,0-15.449,7.075-15.449,15.748c0,8.573,6.18,15.946,15.849,15.946c8.571,0,13.526-5.228,13.526-5.228l3.055,10.502
	c0,0-6.795,5.801-17.678,5.491C10.771,90.558,0,79.175,0,64.425C0,49.972,10.764,37.81,27.609,37.81"/>
<path d="M78.844,57.944h1.694v-0.699c0-6.678-4.185-8.971-9.767-8.971c-7.277,0-13.956,4.885-13.956,4.885l-4.783-9.071
	c0,0,7.874-6.279,19.934-6.279c13.356,0,21.131,7.377,21.131,20.237v31.795H81.436v-4.187c0-1.996,0.199-3.59,0.199-3.59h-0.199
	c0.099,0-3.888,8.971-15.451,8.971c-9.069,0-17.243-5.683-17.243-15.849C48.742,59.039,70.571,57.944,78.844,57.944 M69.175,81.167
	c6.679,0,11.462-7.176,11.462-13.354v-1.199h-2.191c-6.48,0-16.946,0.896-16.946,7.977C61.5,77.979,63.993,81.167,69.175,81.167"/>
<path d="M101.273,39.005h12.16v5.88c0,1.896-0.199,3.489-0.199,3.489h0.199c2.194-4.286,7.774-10.564,18.041-10.564
	c11.263,0,17.642,5.88,17.642,19.337V89.84h-12.559V59.739c0-6.182-1.594-10.367-8.073-10.367c-6.778,0-11.761,4.285-13.656,10.367
	c-0.696,2.093-0.896,4.384-0.896,6.777V89.84h-12.659V39.005z"/>
<path d="M176.929,37.809c11.165,0,14.652,6.48,14.652,6.48h0.2c0,0-0.099-1.296-0.099-2.89V19.07h10.251l2.406,2.81v67.96h-11.959
	v-4.187c0-1.896,0.199-3.292,0.199-3.292h-0.199c0,0-4.286,8.673-15.948,8.673c-13.756,0-22.526-10.866-22.526-26.61
	C153.906,48.274,163.475,37.809,176.929,37.809 M179.322,80.37c6.578,0,12.758-4.785,12.758-16.047
	c0-7.875-4.186-15.648-12.658-15.648c-6.978,0-12.758,5.681-12.758,15.75C166.664,74.091,171.846,80.37,179.322,80.37"/>
<polygon points="213.313,32.107 219.645,39.461 225.972,33.788 225.972,89.839 213.313,89.839 "/>
<path d="M254.479,37.809c11.165,0,14.652,6.48,14.652,6.48h0.2c0,0-0.1-1.296-0.1-2.89V19.07h12.658v70.771h-11.96v-4.187
	c0-1.896,0.199-3.292,0.199-3.292h-0.199c0,0-4.286,8.673-15.948,8.673c-13.756,0-22.525-10.866-22.525-26.61
	C231.456,48.274,241.024,37.809,254.479,37.809 M256.872,80.37c6.577,0,12.758-4.785,12.758-16.047
	c0-7.875-4.187-15.648-12.658-15.648c-6.979,0-12.758,5.681-12.758,15.75C244.214,74.091,249.396,80.37,256.872,80.37"/>
<path d="M316.679,57.944h1.694v-0.699c0-6.678-4.188-8.971-9.767-8.971c-7.277,0-13.956,4.885-13.956,4.885l-4.783-9.071
	c0,0,7.874-6.279,19.934-6.279c13.356,0,21.131,7.377,21.131,20.237v31.795h-11.66v-4.187c0-1.996,0.198-3.59,0.198-3.59h-0.198
	c0.099,0-3.889,8.971-15.451,8.971c-9.069,0-17.243-5.683-17.243-15.849C286.577,59.039,308.406,57.944,316.679,57.944
	 M307.01,81.167c6.68,0,11.462-7.176,11.462-13.354v-1.199h-2.19c-6.48,0-16.946,0.896-16.946,7.977
	C299.335,77.979,301.828,81.167,307.01,81.167"/>
<path d="M341.003,49.871h-6.578V39.802h6.876v-14.65h12.36v14.65h11.562v10.069h-11.562v19.733c0,8.375,6.578,9.57,10.066,9.57
	c1.396,0,2.294-0.201,2.294-0.201v11.064c0,0-1.496,0.301-3.888,0.301c-7.077,0-21.131-2.093-21.131-19.137V49.871z"/>
<path d="M393.635,37.81c14.651,0,22.525,10.664,22.525,24.119c0,1.498-0.299,4.887-0.299,4.887h-35.085
	c0.797,8.87,7.674,13.455,15.249,13.455c8.174,0,14.653-5.583,14.653-5.583l4.884,9.071c0,0-7.775,7.276-20.434,7.276
	c-16.845,0-27.311-12.159-27.311-26.61C367.818,48.773,378.483,37.81,393.635,37.81 M403.402,58.142
	c-0.199-6.877-4.485-10.564-10.068-10.564c-6.478,0-10.963,3.988-12.16,10.564H403.402z"/>
<path d="M217.006,8.143c2.315,2.628,2.063,6.635-0.564,8.952c-2.627,2.316-6.635,2.064-8.951-0.564
	c-2.317-2.628-2.064-6.635,0.563-8.952C210.682,5.262,214.689,5.514,217.006,8.143"/>
<path d="M240.679,2.149c2.315,2.628,2.063,6.635-0.564,8.952c-2.627,2.316-6.635,2.064-8.952-0.564
	c-2.315-2.628-2.062-6.635,0.564-8.952C234.354-0.731,238.362-0.479,240.679,2.149"/>
<polygon points="228.773,21.33 219.354,29.826 207.49,16.53 217.005,8.143 "/>
<polygon points="219.354,29.825 210.966,20.309 231.727,1.585 240.115,11.101 "/>
</svg>
