<?xml version="1.0" encoding="utf-8"?>
<!-- Generator: Adobe Illustrator 16.0.0, SVG Export Plug-In . SVG Version: 6.00 Build 0)  -->
<!DOCTYPE svg PUBLIC "-//W3C//DTD SVG 1.1//EN" "http://www.w3.org/Graphics/SVG/1.1/DTD/svg11.dtd">
<svg version="1.1" id="Layer_1" xmlns="http://www.w3.org/2000/svg" xmlns:xlink="http://www.w3.org/1999/xlink" x="0px" y="0px"
	 width="389.504px" height="90.949px" viewBox="0 0 389.504 90.949" enable-background="new 0 0 389.504 90.949"
	 xml:space="preserve">
<text transform="matrix(0.9915 -0.1302 0.1302 0.9915 117.9053 38.2354)" font-family="'OpenSans-Bold'" font-size="24">I</text>
<text transform="matrix(0.9938 -0.1113 0.1113 0.9938 125.7246 37.1787)" font-family="'OpenSans-Bold'" font-size="24">T</text>
<text transform="matrix(0.9955 -0.0949 0.0949 0.9955 139.4629 35.6772)" font-family="'OpenSans-Bold'" font-size="24">’</text>
<text transform="matrix(0.9969 -0.079 0.079 0.9969 144.5684 35.1572)" font-family="'OpenSans-Bold'" font-size="24">S</text>
<text transform="matrix(0.9981 -0.0623 0.0623 0.9981 157.6846 34.1455)" font-family="'OpenSans-Bold'" font-size="24"> </text>
<text transform="matrix(0.9991 -0.0427 0.0427 0.9991 163.8193 33.7134)" font-family="'OpenSans-Bold'" font-size="24">A</text>
<text transform="matrix(0.9997 -0.0232 0.0232 0.9997 180.2852 33.0591)" font-family="'OpenSans-Bold'" font-size="24"> </text>
<text transform="matrix(1 0.006 -0.006 1 186.395 32.7622)" font-family="'OpenSans-Bold'" font-size="24">M</text>
<text transform="matrix(0.9994 0.0349 -0.0349 0.9994 208.9033 32.894)" font-family="'OpenSans-Bold'" font-size="24">A</text>
<text transform="matrix(0.9981 0.061 -0.061 0.9981 225.332 33.4829)" font-family="'OpenSans-Bold'" font-size="24">T</text>
<text transform="matrix(0.9963 0.0861 -0.0861 0.9963 239.1133 34.3149)" font-family="'OpenSans-Bold'" font-size="24">C</text>
<text transform="matrix(0.9934 0.1151 -0.1151 0.9934 254.2148 35.5972)" font-family="'OpenSans-Bold'" font-size="24">H</text>
<polyline fill="none" stroke="#000000" stroke-width="3" points="337.697,64.663 326.765,73.638 373.417,87.711 365.813,61.917 
	386.414,44.629 354.121,34.888 "/>
<polyline fill="none" stroke="#000000" stroke-width="3" points="51.807,65.663 62.74,74.638 16.086,88.711 23.69,62.917 
	3.09,45.629 35.383,35.888 "/>
<path fill="none" stroke="#000000" stroke-width="3" d="M31.75,25.746c5.945-1.793,11.932-3.492,17.957-5.095
	C96.666,8.158,146.003,1.5,196.896,1.5c52.213,0,102.789,7.008,150.838,20.135c3.332,0.91,6.65,1.849,9.958,2.818l-0.013,0.061
	l-13.21,42.129c0,0-5.007-1.46-7.868-2.18c-44.707-11.243-91.51-17.215-139.705-17.215c-46.561,0-91.819,5.573-135.146,16.088
	c-5.569,1.352-11.442,2.877-16.946,4.39L31.75,25.746z"/>
</svg>
