<?xml version="1.0" encoding="utf-8"?>
<!-- Generator: Adobe Illustrator 16.0.0, SVG Export Plug-In . SVG Version: 6.00 Build 0)  -->
<!DOCTYPE svg PUBLIC "-//W3C//DTD SVG 1.1//EN" "http://www.w3.org/Graphics/SVG/1.1/DTD/svg11.dtd">
<svg version="1.1" id="Layer_1" xmlns="http://www.w3.org/2000/svg" xmlns:xlink="http://www.w3.org/1999/xlink" x="0px" y="0px"
	 width="389.506px" height="90.949px" viewBox="0 0 389.506 90.949" enable-background="new 0 0 389.506 90.949"
	 xml:space="preserve">
<text transform="matrix(0.9756 -0.2198 0.2198 0.9756 66.999 47.6558)" font-family="'OpenSans-Bold'" font-size="24">I</text>
<text transform="matrix(0.9796 -0.2011 0.2011 0.9796 74.6758 45.896)" font-family="'OpenSans-Bold'" font-size="24">T</text>
<text transform="matrix(0.9828 -0.1847 0.1847 0.9828 88.2246 43.1523)" font-family="'OpenSans-Bold'" font-size="24">’</text>
<text transform="matrix(0.9856 -0.1689 0.1689 0.9856 93.2656 42.1709)" font-family="'OpenSans-Bold'" font-size="24">S</text>
<text transform="matrix(0.9884 -0.1522 0.1522 0.9884 106.2256 39.9795)" font-family="'OpenSans-Bold'" font-size="24"> </text>
<text transform="matrix(0.9912 -0.1325 0.1325 0.9912 112.293 38.9937)" font-family="'OpenSans-Bold'" font-size="24">A</text>
<text transform="matrix(0.9936 -0.1129 0.1129 0.9936 128.6436 36.8569)" font-family="'OpenSans-Bold'" font-size="24"> </text>
<text transform="matrix(0.9957 -0.0922 0.0922 0.9957 134.7363 36.1055)" font-family="'OpenSans-Bold'" font-size="24">D</text>
<text transform="matrix(0.9982 -0.0605 0.0605 0.9982 152.2905 34.4663)" font-family="'OpenSans-Bold'" font-size="24">O</text>
<text transform="matrix(0.9996 -0.0286 0.0286 0.9996 171.2212 33.3252)" font-family="'OpenSans-Bold'" font-size="24">U</text>
<text transform="matrix(1 0.006 -0.006 1 189.2192 32.7808)" font-family="'OpenSans-Bold'" font-size="24">B</text>
<text transform="matrix(0.9997 0.026 -0.026 0.9997 205.2578 32.8506)" font-family="'OpenSans-Bold'" font-size="24">L</text>
<text transform="matrix(0.9988 0.0491 -0.0491 0.9988 218.7129 33.1997)" font-family="'OpenSans-Bold'" font-size="24">E</text>
<text transform="matrix(0.9978 0.0661 -0.0661 0.9978 232.0664 33.8862)" font-family="'OpenSans-Bold'" font-size="24"> </text>
<text transform="matrix(0.9959 0.0909 -0.0909 0.9959 238.1846 34.189)" font-family="'OpenSans-Bold'" font-size="24">M</text>
<text transform="matrix(0.9922 0.1247 -0.1247 0.9922 260.5977 36.2827)" font-family="'OpenSans-Bold'" font-size="24">A</text>
<text transform="matrix(0.9886 0.1509 -0.1509 0.9886 276.8936 38.3472)" font-family="'OpenSans-Bold'" font-size="24">T</text>
<text transform="matrix(0.9844 0.176 -0.176 0.9844 290.5371 40.4194)" font-family="'OpenSans-Bold'" font-size="24">C</text>
<text transform="matrix(0.9788 0.2049 -0.2049 0.9788 305.4736 43.0649)" font-family="'OpenSans-Bold'" font-size="24">H</text>
<polyline fill="none" stroke="#000000" stroke-width="3" points="337.697,64.664 326.765,73.638 373.418,87.712 365.813,61.916 
	386.415,44.629 354.122,34.888 "/>
<polyline fill="none" stroke="#000000" stroke-width="3" points="51.807,65.664 62.74,74.638 16.087,88.712 23.691,62.916 
	3.09,45.629 35.383,35.888 "/>
<path fill="none" stroke="#000000" stroke-width="3" d="M31.75,25.746c5.945-1.793,11.932-3.492,17.957-5.095
	C96.667,8.158,146.003,1.5,196.896,1.5c52.213,0,102.789,7.008,150.838,20.135c3.332,0.91,6.651,1.849,9.958,2.818l-0.012,0.061
	l-13.21,42.129c0,0-5.007-1.46-7.869-2.18C291.894,53.22,245.092,47.25,196.896,47.25c-46.56,0-91.819,5.572-135.146,16.088
	c-5.569,1.351-11.442,2.876-16.946,4.389L31.75,25.746z"/>
</svg>
