<?xml version="1.0" encoding="utf-8"?>
<!-- Generator: Adobe Illustrator 16.0.0, SVG Export Plug-In . SVG Version: 6.00 Build 0)  -->
<!DOCTYPE svg PUBLIC "-//W3C//DTD SVG 1.1//EN" "http://www.w3.org/Graphics/SVG/1.1/DTD/svg11.dtd">
<svg version="1.1" id="Layer_1" xmlns="http://www.w3.org/2000/svg" xmlns:xlink="http://www.w3.org/1999/xlink" x="0px" y="0px"
	 width="389.506px" height="90.949px" viewBox="0 0 389.506 90.949" enable-background="new 0 0 389.506 90.949"
	 xml:space="preserve">
<g enable-background="new    ">
	<path d="M78.003,45.223l-3.497-16.773l3.557-0.741l3.497,16.773L78.003,45.223z"/>
</g>
<g enable-background="new    ">
	<path d="M92.195,42.404l-3.57,0.673L86.01,29.211l-4.571,0.863l-0.561-2.971l12.713-2.399l0.561,2.971l-4.571,0.863L92.195,42.404z
		"/>
</g>
<g enable-background="new    ">
	<path d="M98.992,23.809l0.205,0.226c-0.125,1.583-0.487,3.542-1.085,5.88l-2.53,0.434c0.142-2.369,0.196-4.365,0.164-5.984
		L98.992,23.809z"/>
</g>
<g enable-background="new    ">
	<path d="M113.649,34.017c0.237,1.528-0.127,2.819-1.091,3.869c-0.963,1.05-2.426,1.728-4.387,2.032
		c-1.807,0.28-3.457,0.188-4.952-0.277l-0.517-3.335c1.222,0.333,2.244,0.541,3.068,0.628c0.822,0.085,1.562,0.078,2.219-0.024
		c0.787-0.122,1.368-0.366,1.742-0.732c0.375-0.366,0.516-0.846,0.424-1.441c-0.052-0.332-0.19-0.612-0.415-0.842
		c-0.226-0.23-0.536-0.438-0.933-0.621s-1.187-0.453-2.372-0.806c-1.11-0.326-1.958-0.673-2.545-1.041
		c-0.587-0.367-1.08-0.825-1.481-1.372c-0.4-0.547-0.662-1.217-0.786-2.012c-0.231-1.498,0.093-2.755,0.976-3.769
		c0.883-1.015,2.219-1.66,4.011-1.937c0.88-0.136,1.735-0.163,2.567-0.078c0.831,0.084,1.712,0.249,2.644,0.491l-0.726,2.971
		c-0.961-0.231-1.748-0.374-2.361-0.43c-0.613-0.055-1.206-0.038-1.777,0.051c-0.68,0.105-1.176,0.344-1.489,0.717
		c-0.314,0.372-0.432,0.813-0.353,1.323c0.049,0.316,0.165,0.582,0.349,0.794c0.183,0.213,0.451,0.404,0.806,0.575
		c0.355,0.17,1.175,0.448,2.46,0.834c1.7,0.512,2.902,1.103,3.606,1.771C113.041,32.026,113.478,32.914,113.649,34.017z"/>
</g>
<g enable-background="new    ">
</g>
<g enable-background="new    ">
	<path d="M133.884,36.25l-1.71-3.906l-6.204,0.729l-0.757,4.196l-3.887,0.457l3.998-17.792l4.412-0.519l8.037,16.379L133.884,36.25z
		 M130.958,29.419c-1.572-3.537-2.458-5.537-2.658-6.001c-0.201-0.464-0.348-0.833-0.442-1.104c-0.14,1.023-0.584,3.565-1.334,7.626
		L130.958,29.419z"/>
</g>
<g enable-background="new    ">
</g>
<g enable-background="new    ">
	<path d="M152.563,34.523l-3.621,0.289l-1.125-14.064l-4.637,0.371l-0.241-3.014l12.896-1.031l0.24,3.014l-4.638,0.371
		L152.563,34.523z"/>
</g>
<g enable-background="new    ">
	<path d="M162.984,27.231l0.356,6.564l-3.627,0.197l-0.929-17.107l4.985-0.271c2.325-0.126,4.068,0.205,5.229,0.99
		c1.162,0.786,1.789,2.041,1.883,3.765c0.055,1.007-0.174,1.916-0.686,2.73c-0.511,0.814-1.261,1.471-2.251,1.97
		c2.783,3.706,4.595,6.101,5.436,7.181l-4.025,0.219l-4.44-6.343L162.984,27.231z M162.824,24.283l1.17-0.063
		c1.146-0.062,1.982-0.299,2.508-0.712c0.525-0.412,0.766-1.027,0.721-1.846c-0.044-0.812-0.354-1.374-0.93-1.686
		c-0.577-0.313-1.45-0.438-2.62-0.374l-1.1,0.06L162.824,24.283z"/>
</g>
<g enable-background="new    ">
	<path d="M175.469,33.222L174.892,16.1l3.63-0.123L179.1,33.1L175.469,33.222z"/>
</g>
<g enable-background="new    ">
	<path d="M194.997,21.008c0.026,1.844-0.53,3.262-1.668,4.255c-1.139,0.992-2.771,1.504-4.895,1.534l-1.559,0.021l0.086,6.093
		l-3.632,0.052l-0.242-17.131l5.472-0.077c2.078-0.029,3.664,0.396,4.759,1.274C194.412,17.909,194.971,19.234,194.997,21.008z
		 M186.833,23.842l1.195-0.017c1.117-0.016,1.95-0.248,2.498-0.697s0.817-1.096,0.805-1.939c-0.012-0.852-0.253-1.478-0.724-1.877
		s-1.202-0.593-2.194-0.579l-1.652,0.023L186.833,23.842z"/>
</g>
<g enable-background="new    ">
	<path d="M198.306,32.815l0.178-17.131l3.633,0.038l-0.147,14.131l6.948,0.072l-0.031,3L198.306,32.815z"/>
</g>
<g enable-background="new    ">
	<path d="M221.606,33.331l-9.861-0.33l0.572-17.123l9.861,0.33l-0.1,2.975l-6.23-0.208l-0.126,3.76l5.798,0.194l-0.1,2.975
		l-5.798-0.194l-0.147,4.415l6.23,0.208L221.606,33.331z"/>
</g>
<g enable-background="new    ">
</g>
<g enable-background="new    ">
	<path d="M238.476,34.316l-3.104-13.714l-0.105-0.008c-0.058,2.737-0.121,4.562-0.189,5.475l-0.598,7.946l-3.238-0.244l1.287-17.085
		l4.932,0.372l3.06,13.369l0.069,0.005l5.273-12.741l4.932,0.371l-1.287,17.085l-3.377-0.254l0.609-8.087
		c0.028-0.382,0.067-0.822,0.117-1.319c0.049-0.498,0.201-1.818,0.457-3.962l-0.105-0.008l-5.414,13.049L238.476,34.316z"/>
</g>
<g enable-background="new    ">
	<path d="M264.077,36.723l-0.791-4.189l-6.209-0.679l-1.678,3.918l-3.891-0.426l7.882-16.444l4.415,0.483l4.164,17.762
		L264.077,36.723z M262.757,29.411c-0.74-3.798-1.155-5.946-1.247-6.443c-0.091-0.497-0.151-0.889-0.184-1.175
		c-0.364,0.966-1.368,3.344-3.009,7.133L262.757,29.411z"/>
</g>
<g enable-background="new    ">
	<path d="M276.546,38.338l-3.6-0.491l1.906-13.979l-4.609-0.628l0.408-2.996l12.818,1.748l-0.408,2.996l-4.609-0.629L276.546,38.338
		z"/>
</g>
<g enable-background="new    ">
	<path d="M293.142,26.35c-1.35-0.22-2.477,0.118-3.381,1.012c-0.905,0.895-1.505,2.247-1.799,4.06
		c-0.612,3.771,0.497,5.887,3.327,6.346c1.188,0.192,2.674,0.129,4.459-0.19l-0.487,3.007c-1.482,0.354-3.079,0.392-4.791,0.113
		c-2.461-0.399-4.221-1.451-5.282-3.154c-1.061-1.704-1.365-3.952-0.912-6.743c0.286-1.759,0.855-3.247,1.71-4.465
		c0.855-1.22,1.939-2.084,3.253-2.596c1.313-0.511,2.776-0.635,4.388-0.373c1.643,0.267,3.229,0.931,4.758,1.995l-1.63,2.727
		c-0.583-0.403-1.177-0.77-1.78-1.097C294.369,26.663,293.759,26.449,293.142,26.35z"/>
</g>
<g enable-background="new    ">
	<path d="M312.411,44.476l-3.556-0.685l1.398-7.262l-6.664-1.283l-1.398,7.262l-3.567-0.687l3.239-16.824l3.567,0.687l-1.27,6.594
		l6.664,1.283l1.27-6.594l3.556,0.685L312.411,44.476z"/>
</g>
<g>
	<polygon points="375.642,89.95 323.641,74.263 336.744,63.505 338.648,65.823 329.889,73.015 371.194,85.476 364.097,61.398 
		383.325,45.264 353.688,36.325 354.556,33.453 389.505,43.994 367.53,62.434 	"/>
</g>
<g>
	<polygon points="13.864,90.95 21.975,63.434 0,44.994 34.95,34.453 35.816,37.325 6.18,46.264 25.407,62.398 18.31,86.476 
		59.616,74.015 50.855,66.823 52.759,64.505 65.865,75.263 	"/>
</g>
<g>
	<path d="M43.803,69.558L29.868,24.747l1.449-0.437c5.943-1.792,12.001-3.511,18.004-5.109C97.215,6.46,146.866,0,196.896,0
		c51.318,0,102.201,6.792,151.233,20.188c3.356,0.917,6.716,1.867,9.985,2.826l1.309,0.384l-0.311,1.565l-13.651,43.531
		l-1.411-0.411c-0.05-0.015-5.014-1.46-7.816-2.167c-45.303-11.392-92.183-17.168-139.338-17.168
		c-45.574,0-90.924,5.398-134.792,16.047c-5.468,1.326-11.312,2.84-16.902,4.378L43.803,69.558z M33.632,26.747l12.174,39.15
		c5.188-1.414,10.549-2.796,15.59-4.019c44.099-10.703,89.687-16.131,135.499-16.131c47.401,0,94.528,5.807,140.071,17.259
		c1.941,0.49,4.808,1.3,6.511,1.788l12.332-39.328c-2.787-0.809-5.631-1.609-8.472-2.385C298.563,9.756,247.947,3,196.896,3
		C147.126,3,97.735,9.426,50.093,22.101C44.608,23.56,39.078,25.121,33.632,26.747z"/>
</g>
</svg>
