<?xml version="1.0" encoding="utf-8"?>
<!-- Generator: Adobe Illustrator 16.0.0, SVG Export Plug-In . SVG Version: 6.00 Build 0)  -->
<!DOCTYPE svg PUBLIC "-//W3C//DTD SVG 1.1//EN" "http://www.w3.org/Graphics/SVG/1.1/DTD/svg11.dtd">
<svg version="1.1" id="Layer_1" xmlns="http://www.w3.org/2000/svg" xmlns:xlink="http://www.w3.org/1999/xlink" x="0px" y="0px"
	 width="234.845px" height="50.861px" viewBox="0 0 234.845 50.861" enable-background="new 0 0 234.845 50.861"
	 xml:space="preserve">
<polygon points="58.934,23.088 56.807,24.507 57.958,22.062 56.043,20.59 58.699,20.59 59.872,18.102 60.31,20.59 62.732,20.59 
	60.431,22.028 60.885,24.59 "/>
<path d="M87.264,23.859c-1.025-1.539-3.605-2.45-5.827-2.45c-8.366,0-15.509,9.604-16.022,18.141
	c-0.342,5.633,2.235,9.866,7.018,9.866c4.099,0,7.32-2.22,8.342-3.245l1.391-1.521l0.132,0.197l-1.192,3.906h6.356l6.82-26.616
	h-6.489L87.264,23.859z M76.008,44.847c-2.391,0-3.946-2.441-3.774-6.024c0.683-9.222,6.473-13.109,9.203-13.109
	c2.561,0,3.088,0.307,4.966,2.185C84.185,41.558,79.083,44.847,76.008,44.847"/>
<path d="M106.2,45.179c-1.367,0-3.393-0.694-1.854-6.158l3.774-13.308h6.29l0.861-3.575h-6.29l2.052-8.077l-6.687,1.589
	l-1.721,6.488h-3.377l-0.861,3.575h3.377l-3.906,14.169c-2.05,7.168,0.315,9.533,5.098,9.533c2.05,0,4.637-0.63,6.687-1.654
	l-0.199-3.642C108.419,44.632,107.566,45.179,106.2,45.179"/>
<polygon points="228.357,9.491 218.226,48.753 224.714,48.753 234.845,9.491 "/>
<path d="M11.785,40.08l7.349-28.205c3.244-1.025,6.505-1.372,10.263-0.861c1.366,4.611,3.734,12.281,8.342,17.744
	c0.856,0.856,2.219,2.22,3.244,3.245l2.914-10.925c-4.953-3.247-6.968-14.508-7.482-17.413c-2.903-0.511-6.453-1.034-10.594-0.927
	c-4.141,0.107-8.902,0.883-14.367,2.847L0,49.945c9.394-2.733,15.048-2.073,20.856-1.39l1.854-7.813
	C19.807,39.72,16.568,39.569,11.785,40.08"/>
<polygon points="113.549,48.753 119.905,48.753 126.725,22.138 120.435,22.138 "/>
<path d="M144.667,21.409c-6.661,0-15.366,5.321-16.221,16.42c-0.342,6.146,3.723,11.586,10.726,11.586
	c9.392,0,15.379-8.346,15.891-16.883C155.577,27.237,153.034,21.409,144.667,21.409 M148.442,32.333
	c-0.855,11.438-5.869,13.177-7.747,13.177c-4.1-0.001-5.811-3.062-5.296-8.013c0.172-4.269,2.562-12.314,8.541-12.314
	C147.356,25.183,148.611,28.575,148.442,32.333"/>
<path d="M180.156,21.409c-3.589,0-7.016,1.388-11.454,5.826v-0.198l1.589-4.9h-6.355l-6.82,26.617h6.29l2.251-8.873
	c1.878-7.685,7.32-13.639,10.396-13.639c1.708,0,3.093,0.673,2.582,3.575c0,1.025-0.151,2.039-0.662,3.576l-4.105,15.36h6.29
	l4.304-15.36c0.515-2.39,0.993-4.291,0.993-5.828C185.793,23.128,183.911,21.409,180.156,21.409"/>
<path d="M210.944,23.859c-1.197-1.539-3.807-2.45-6.025-2.45c-8.372,0-15.377,9.604-15.89,18.141
	c-0.513,5.633,2.273,9.866,6.885,9.866c4.097,0,7.487-2.22,8.343-3.245l1.39-1.521l0.134,0.197l-1.192,3.906h6.488l6.687-26.616
	h-6.355L210.944,23.859z M199.622,44.847c-2.564,0-4.049-2.441-3.708-6.024c0.511-9.222,6.271-13.109,9.005-13.109
	c2.562,0,3.257,0.307,4.966,2.185C207.662,41.558,202.694,44.847,199.622,44.847"/>
<path d="M126.526,10.021c-2.05,0-4.057,1.989-4.567,4.039c-0.685,2.219,0.296,4.502,2.515,4.502c2.393,0,4.452-2.283,4.966-4.502
	C130.123,12.01,128.916,10.021,126.526,10.021"/>
<polygon points="67.13,13.525 65.004,14.944 66.154,12.499 64.24,11.027 66.896,11.027 68.068,8.538 68.506,11.027 70.929,11.027 
	68.628,12.465 69.082,15.027 "/>
<polygon points="63.203,4.987 61.077,6.406 62.228,3.961 60.313,2.489 62.969,2.489 64.141,0 64.579,2.489 67.001,2.489 
	64.701,3.927 65.154,6.489 "/>
<polygon points="55.006,13.525 52.88,14.944 54.03,12.499 52.116,11.027 54.772,11.027 55.944,8.538 56.382,11.027 58.805,11.027 
	56.504,12.465 56.957,15.027 "/>
<path d="M61.146,22.287l0.683,3.928l-2.902-2.389l-3.758,2.389l1.88-3.928l-2.361-2.066l-5.163,21.381
	c-4.441,1.537-10.924,0.86-10.924,0.86c-3.589-2.388-8.557-8.534-12.315-16.221L23.77,36.438
	c2.391,4.949,8.149,11.647,12.248,14.037c0.17,0,7.196,1.666,20.857-1.92l7.544-28.352L61.146,22.287z"/>
<path d="M67.766,2.689l-2.351,1.496l0.683,3.928l-2.902-2.389l-3.758,2.389l1.831-3.825c-4.996,0.952-8.831,0.856-14.326,0.039
	l-1.854,8.21c2.138,0.628,4.75,0.789,7.886,0.493l0.146-0.306l-2.733-2.392h3.928l1.88-3.755l0.681,3.755h4.099l-3.758,2.392
	l0.683,3.927l-1.961-1.615l-1.173,4.859h3.476l1.881-3.755l0.68,3.755H64.5l1.27-4.773l-2.406,1.529l1.88-3.927l-2.733-2.392h3.928
	l1.292-2.58l1.457-5.478C68.699,2.42,68.23,2.556,67.766,2.689"/>
</svg>
