<?xml version="1.0" encoding="utf-8"?>
<!-- Generator: Adobe Illustrator 16.0.0, SVG Export Plug-In . SVG Version: 6.00 Build 0)  -->
<!DOCTYPE svg PUBLIC "-//W3C//DTD SVG 1.1//EN" "http://www.w3.org/Graphics/SVG/1.1/DTD/svg11.dtd">
<svg version="1.1" id="Layer_1" xmlns="http://www.w3.org/2000/svg" xmlns:xlink="http://www.w3.org/1999/xlink" x="0px" y="0px"
	 width="121.846px" height="100.006px" viewBox="0 0 121.846 100.006" enable-background="new 0 0 121.846 100.006"
	 xml:space="preserve">
<polygon points="12.354,16.5 12.354,8.212 13.981,8.212 17.374,13.747 17.374,8.212 18.928,8.212 18.928,16.5 17.249,16.5 
	13.908,11.096 13.908,16.5 "/>
<path d="M24.163,14.588l1.582,0.266c-0.203,0.58-0.524,1.022-0.963,1.326c-0.44,0.303-0.989,0.455-1.648,0.455
	c-1.044,0-1.816-0.341-2.317-1.024c-0.396-0.546-0.595-1.235-0.595-2.068c0-0.995,0.261-1.774,0.781-2.338
	c0.521-0.563,1.177-0.845,1.972-0.845c0.895,0,1.599,0.295,2.115,0.885c0.516,0.59,0.764,1.493,0.74,2.71h-3.979
	c0.012,0.471,0.14,0.838,0.385,1.1c0.245,0.262,0.55,0.393,0.916,0.393c0.248,0,0.458-0.068,0.627-0.204
	C23.948,15.108,24.076,14.891,24.163,14.588 M24.253,12.983c-0.011-0.46-0.13-0.809-0.356-1.049c-0.226-0.239-0.5-0.358-0.824-0.358
	c-0.348,0-0.635,0.126-0.86,0.378c-0.226,0.253-0.337,0.596-0.333,1.029H24.253z"/>
<polygon points="28.244,16.5 26.345,10.497 27.888,10.497 29.013,14.431 30.047,10.497 31.579,10.497 32.58,14.431 33.727,10.497 
	35.293,10.497 33.365,16.5 31.839,16.5 30.805,12.639 29.787,16.5 "/>
<polygon points="38.64,16.5 38.64,14.991 42.992,9.615 39.132,9.615 39.132,8.212 45.196,8.212 45.196,9.513 40.657,15.104 
	45.372,15.104 45.372,16.5 "/>
<path d="M49.895,14.588l1.582,0.266c-0.203,0.58-0.523,1.022-0.963,1.326c-0.439,0.303-0.989,0.455-1.647,0.455
	c-1.044,0-1.817-0.341-2.318-1.024c-0.396-0.546-0.594-1.235-0.594-2.068c0-0.995,0.26-1.774,0.78-2.338
	c0.521-0.563,1.178-0.845,1.973-0.845c0.894,0,1.598,0.295,2.115,0.885c0.516,0.59,0.763,1.493,0.739,2.71h-3.979
	c0.011,0.471,0.139,0.838,0.384,1.1c0.245,0.262,0.55,0.393,0.916,0.393c0.248,0,0.458-0.068,0.627-0.204
	C49.68,15.108,49.808,14.891,49.895,14.588 M49.984,12.983c-0.011-0.46-0.13-0.809-0.355-1.049
	c-0.227-0.239-0.501-0.358-0.826-0.358c-0.346,0-0.633,0.126-0.859,0.378c-0.226,0.253-0.337,0.596-0.332,1.029H49.984z"/>
<path d="M54.044,12.328l-1.442-0.26c0.162-0.58,0.441-1.01,0.838-1.289c0.395-0.279,0.982-0.418,1.763-0.418
	c0.709,0,1.235,0.084,1.583,0.252c0.347,0.167,0.591,0.38,0.731,0.638c0.143,0.259,0.212,0.732,0.212,1.422l-0.017,1.854
	c0,0.528,0.026,0.917,0.077,1.167c0.05,0.251,0.146,0.521,0.285,0.806h-1.572c-0.041-0.105-0.092-0.262-0.152-0.469
	c-0.025-0.094-0.045-0.156-0.057-0.187c-0.271,0.264-0.561,0.462-0.87,0.594c-0.309,0.132-0.639,0.198-0.989,0.198
	c-0.618,0-1.105-0.168-1.462-0.504c-0.355-0.335-0.534-0.759-0.534-1.271c0-0.34,0.082-0.642,0.243-0.908
	c0.162-0.265,0.39-0.469,0.682-0.61c0.292-0.141,0.713-0.265,1.264-0.37c0.742-0.14,1.257-0.27,1.543-0.391v-0.158
	c0-0.305-0.075-0.523-0.226-0.653c-0.151-0.13-0.436-0.195-0.854-0.195c-0.282,0-0.503,0.056-0.661,0.167
	S54.142,12.049,54.044,12.328 M56.169,13.617c-0.203,0.068-0.526,0.149-0.967,0.243c-0.441,0.094-0.729,0.188-0.865,0.277
	c-0.207,0.147-0.31,0.334-0.31,0.56c0,0.222,0.082,0.414,0.248,0.576s0.377,0.243,0.633,0.243c0.287,0,0.56-0.094,0.82-0.282
	c0.191-0.143,0.317-0.319,0.379-0.526c0.041-0.136,0.062-0.394,0.062-0.774V13.617z"/>
<rect x="59.295" y="8.213" width="1.589" height="8.287"/>
<path d="M63.699,12.328l-1.442-0.26c0.162-0.58,0.441-1.01,0.837-1.289c0.396-0.279,0.983-0.418,1.764-0.418
	c0.709,0,1.235,0.084,1.583,0.252c0.347,0.167,0.591,0.38,0.731,0.638c0.143,0.259,0.212,0.732,0.212,1.422l-0.017,1.854
	c0,0.528,0.025,0.917,0.077,1.167c0.05,0.251,0.146,0.521,0.284,0.806h-1.571c-0.041-0.105-0.092-0.262-0.152-0.469
	c-0.026-0.094-0.045-0.156-0.057-0.187c-0.271,0.264-0.562,0.462-0.87,0.594s-0.639,0.198-0.989,0.198
	c-0.619,0-1.105-0.168-1.462-0.504c-0.355-0.335-0.534-0.759-0.534-1.271c0-0.34,0.081-0.642,0.243-0.908
	c0.162-0.265,0.389-0.469,0.682-0.61c0.291-0.141,0.713-0.265,1.264-0.37c0.742-0.14,1.257-0.27,1.543-0.391v-0.158
	c0-0.305-0.075-0.523-0.227-0.653c-0.15-0.13-0.435-0.195-0.854-0.195c-0.282,0-0.503,0.056-0.661,0.167
	S63.797,12.049,63.699,12.328 M65.824,13.617c-0.203,0.068-0.526,0.149-0.967,0.243c-0.44,0.094-0.729,0.188-0.865,0.277
	c-0.207,0.147-0.311,0.334-0.311,0.56c0,0.222,0.082,0.414,0.248,0.576s0.377,0.243,0.635,0.243c0.285,0,0.559-0.094,0.818-0.282
	c0.192-0.143,0.319-0.319,0.379-0.526c0.041-0.136,0.062-0.394,0.062-0.774V13.617z"/>
<path d="M74.411,16.5h-1.589v-3.064c0-0.648-0.033-1.067-0.102-1.258c-0.068-0.19-0.178-0.338-0.331-0.443
	c-0.152-0.106-0.336-0.159-0.551-0.159c-0.275,0-0.522,0.076-0.741,0.227c-0.218,0.15-0.368,0.35-0.449,0.599
	c-0.081,0.248-0.121,0.708-0.121,1.379V16.5h-1.589v-6.003h1.477v0.882c0.522-0.679,1.183-1.018,1.978-1.018
	c0.35,0,0.671,0.063,0.961,0.189c0.29,0.127,0.51,0.288,0.659,0.484c0.148,0.196,0.252,0.418,0.31,0.667
	c0.06,0.248,0.089,0.605,0.089,1.068V16.5z"/>
<path d="M81.528,16.5h-1.477v-0.882c-0.245,0.343-0.534,0.598-0.866,0.766c-0.334,0.167-0.671,0.251-1.01,0.251
	c-0.689,0-1.281-0.277-1.772-0.833s-0.737-1.332-0.737-2.326c0-1.018,0.239-1.792,0.718-2.321s1.083-0.794,1.814-0.794
	c0.671,0,1.251,0.279,1.741,0.836V8.213h1.589V16.5z M77.288,13.368c0,0.641,0.089,1.104,0.266,1.391
	c0.257,0.414,0.614,0.621,1.074,0.621c0.365,0,0.676-0.155,0.933-0.466s0.385-0.775,0.385-1.393c0-0.69-0.125-1.186-0.373-1.49
	c-0.249-0.303-0.567-0.455-0.956-0.455c-0.376,0-0.692,0.15-0.946,0.45C77.415,12.325,77.288,12.773,77.288,13.368"/>
<polygon points="86.333,16.5 86.333,8.212 92.014,8.212 92.014,9.615 88.006,9.615 88.006,11.576 91.466,11.576 91.466,12.978 
	88.006,12.978 88.006,16.5 "/>
<path d="M93.382,8.213h1.588v1.47h-1.588V8.213z M93.382,10.496h1.588v6.003h-1.588V10.496z"/>
<path d="M98.119,16.5h-1.59v-6.003h1.477v0.853c0.252-0.403,0.479-0.669,0.681-0.797s0.432-0.192,0.688-0.192
	c0.362,0,0.71,0.1,1.046,0.299l-0.492,1.386c-0.268-0.174-0.516-0.26-0.746-0.26c-0.223,0-0.411,0.061-0.565,0.183
	c-0.154,0.123-0.276,0.344-0.364,0.664c-0.089,0.321-0.133,0.992-0.133,2.013V16.5z"/>
<path d="M100.544,14.787l1.594-0.243c0.068,0.309,0.205,0.543,0.413,0.704c0.207,0.16,0.497,0.24,0.87,0.24
	c0.411,0,0.72-0.076,0.927-0.226c0.141-0.106,0.21-0.247,0.21-0.424c0-0.121-0.038-0.221-0.112-0.3
	c-0.08-0.075-0.258-0.145-0.532-0.209c-1.281-0.283-2.093-0.541-2.437-0.775c-0.475-0.324-0.713-0.774-0.713-1.35
	c0-0.521,0.206-0.958,0.617-1.312c0.41-0.354,1.047-0.531,1.91-0.531c0.822,0,1.432,0.133,1.832,0.401
	c0.398,0.268,0.674,0.663,0.825,1.187l-1.498,0.277c-0.064-0.233-0.187-0.413-0.364-0.537c-0.179-0.124-0.436-0.186-0.766-0.186
	c-0.42,0-0.719,0.058-0.899,0.175c-0.121,0.083-0.181,0.19-0.181,0.322c0,0.113,0.053,0.209,0.157,0.288
	c0.144,0.106,0.639,0.255,1.484,0.447s1.437,0.428,1.772,0.706c0.332,0.283,0.498,0.677,0.498,1.182c0,0.55-0.23,1.022-0.69,1.419
	c-0.46,0.396-1.14,0.593-2.041,0.593c-0.817,0-1.465-0.165-1.941-0.497S100.691,15.356,100.544,14.787"/>
<path d="M110.295,10.496v1.266h-1.085v2.42c0,0.49,0.01,0.775,0.031,0.856c0.02,0.081,0.067,0.148,0.141,0.201
	c0.074,0.053,0.163,0.079,0.27,0.079c0.146,0,0.358-0.051,0.638-0.153l0.136,1.233c-0.368,0.158-0.788,0.237-1.255,0.237
	c-0.286,0-0.545-0.048-0.773-0.144c-0.23-0.096-0.399-0.221-0.506-0.373c-0.108-0.153-0.183-0.359-0.225-0.619
	c-0.033-0.185-0.05-0.558-0.05-1.119v-2.618h-0.73v-1.266h0.73V9.303l1.594-0.927v2.12H110.295z"/>
<path d="M114.621,20.526H52.438V41.71L33.992,20.526H8.211v71.269h25.617V75.373l14.611,16.422h66.182V68.148H93.601l21.021-20.034
	V20.526z M54.474,85.797c-0.076-0.002-0.132-0.015-0.07,0.06c0.025,0.03,0.086,0.05,0.12,0.069c-0.031,0.011-0.173,0-0.174,0.018
	c0,0.071,0.018,0.112-0.052,0.143c-0.054,0.022-0.21-0.011-0.235,0.032c-0.009,0.015-0.18,0.04-0.21,0.052
	c-0.072,0.028-0.202,0.035-0.23,0.11c-0.023,0.06-0.072,0.097-0.099,0.154c-0.055,0.125-0.385,0.007-0.481,0.039
	c0.003-0.021-0.011-0.042-0.009-0.062c-0.065,0.012-0.129,0.004-0.169,0.057c-0.032,0.046-0.144,0.097-0.163,0.147
	c-0.022,0.06,0.028,0.093-0.043,0.138c-0.064,0.037-0.066,0.002-0.114-0.053c-0.031,0.063,0.042,0.104,0.08,0.145
	c0.021,0.021-0.04,0.147-0.066,0.16c-0.037,0.018-0.303-0.027-0.303-0.082c0.001-0.094,0-0.18,0.056-0.26
	c0.019-0.027,0.057,0.002,0.064-0.016c0.012-0.03,0.024-0.059,0.038-0.088c0.015-0.035,0.079-0.046,0.105-0.078
	c0.042-0.05,0.063-0.068,0.069-0.132c0.005-0.056,0.002-0.115-0.021-0.169c-0.016-0.041-0.06-0.068-0.04-0.11
	c0.055-0.114,0.095-0.183,0.227-0.2c0.046-0.007,0.11,0.01,0.15-0.014c0.061-0.036-0.025-0.127-0.06-0.176
	c-0.06-0.086-0.086-0.168-0.085-0.27c0.027,0.043,0.091,0.119,0.137,0.086c0.062-0.046,0.109-0.046,0.132-0.121
	c0.043-0.139,0.03-0.287-0.039-0.414c-0.04-0.076-0.138-0.164-0.148-0.244c-0.01-0.075,0.009-0.149,0.02-0.223
	c0.007-0.035,0.027-0.156,0.061-0.162c0.071-0.013,0.118-0.007,0.189,0.006c0.044-0.055,0.094-0.189,0.191-0.144
	c0.051,0.024,0.188,0.05,0.223,0.082c0.064,0.06,0.122,0.12,0.181,0.185c0.008,0.01-0.011,0.084-0.001,0.109
	c0.022,0.064,0.026,0.075,0.071,0.113c0.072,0.061,0.144,0.124,0.214,0.189c0.074,0.068,0.083,0.121,0.199,0.094
	c0.02-0.006,0.056,0.174,0.018,0.173c-0.043,0-0.309-0.032-0.298,0.032c-0.109,0-0.137-0.082-0.197-0.159
	c-0.044,0.085-0.038,0.159-0.069,0.247c-0.022,0.066-0.104,0.111-0.153,0.166c0.035,0.015,0.07,0.029,0.106,0.043
	c0.013,0.005,0.054-0.086,0.071-0.102c0.043-0.039,0.096-0.111,0.163-0.093c0.057,0.015,0.09,0.083,0.155,0.097
	c0.064,0.012,0.113,0.027,0.172,0.055c-0.024,0.013-0.154,0.024-0.131,0.084c0.004,0.012,0.073,0.029,0.086,0.025
	c0.085-0.027,0.106-0.1,0.194-0.099c0.076,0.001,0.141,0.093,0.191,0.144C54.598,85.686,54.421,85.697,54.474,85.797 M73.647,58.354
	c-0.005,0.08-0.136,0.048-0.198,0.084c-0.043,0.023-0.139,0.131-0.14,0.182c-0.001,0.118-0.11,0.145-0.172,0.231
	c-0.023,0.032-0.001,0.092-0.058,0.114c-0.036,0.015-0.08,0.024-0.111,0.05c-0.049,0.036-0.163,0.129-0.205,0.073
	c-0.041-0.058,0.125-0.148,0.172-0.188c-0.102-0.229-0.411,0.259-0.376,0.393c-0.014-0.015-0.037-0.02-0.051-0.033
	c-0.044,0.211-0.092,0.363,0.032,0.551c0.03,0.046,0.105,0.054,0.13,0.105c0.038,0.084,0.089,0.104,0.159,0.157
	c0.051,0.039,0.047,0.209,0.05,0.269c0.008,0.162-0.006,0.26,0.104,0.382c0.094,0.101,0.137,0.112,0.27,0.139
	c0.11,0.021-0.041,0.103-0.062,0.109c-0.036,0.014-0.087,0.067-0.097,0.104c-0.03,0.121-0.072,0.177-0.129,0.282
	c-0.121,0.227-0.333,0.422-0.53,0.587c-0.143,0.119-0.254,0.406-0.256,0.587c-0.002,0.125,0.099,0.21-0.064,0.258
	c-0.087,0.023-0.086,0.17-0.185,0.219c-0.053,0.024-0.118,0.058-0.158,0.102c-0.042,0.047,0.007,0.074-0.062,0.107
	c-0.055,0.026-0.094,0.029-0.103,0.093c-0.003,0.021-0.003,0.149-0.014,0.162c-0.03,0.036-0.11,0.021-0.149,0.063
	c-0.049,0.053-0.052,0.059-0.056,0.131c-0.004,0.064-0.019,0.102,0.023,0.149c0.043,0.049,0.074,0.079,0.046,0.149
	c-0.096-0.023-0.215-0.104-0.304-0.069c-0.081,0.032-0.201,0.153-0.255,0.222c-0.063,0.079-0.068,0.2-0.104,0.295
	c-0.025,0.067-0.043,0.086-0.018,0.152c0.04,0.1-0.028,0.023-0.06,0.092c-0.098,0.217-0.19,0.432-0.272,0.653
	c-0.026,0.071-0.067,0.351-0.111,0.385c-0.099,0.075-0.139,0.119-0.177,0.242c-0.041,0.131-0.057,0.166-0.134,0.276
	c-0.068,0.1-0.058,0.25-0.188,0.283c-0.247,0.062-0.359,0.146-0.449,0.385c-0.011,0.026-0.135,0.009-0.165,0.008
	c-0.043,0-0.101,0.062-0.135,0.087c-0.084,0.06-0.199,0.094-0.296,0.129c-0.039,0.014-0.111,0.015-0.142,0.038
	c-0.04,0.031-0.031,0.123-0.07,0.154c-0.097,0.08-0.18,0.023-0.251-0.037c0.068,0.092,0.014,0.195-0.029,0.283
	c-0.032,0.065-0.149,0.035-0.218,0.034c0.158,0.07,0.183,0.073,0.11,0.237c-0.044,0.098-0.034,0.214-0.05,0.318
	c-0.036,0.268-0.019,0.488,0.041,0.752c0.024,0.106,0.044,0.219,0.082,0.322c0.031,0.082,0.029,0.098,0.11,0.129
	c0.038,0.017,0.113,0.047,0.087,0.092c-0.022,0.035-0.244,0.074-0.303,0.087c-0.062,0.014-0.145,0.003-0.148,0.073
	c-0.004,0.057-0.035,0.119,0.035,0.125c0.006-0.035,0.013-0.069,0.019-0.104c0.021,0.032,0.039,0.063,0.06,0.097
	c0.033-0.113,0.103-0.078,0.197-0.098c0.065-0.014,0.15-0.077,0.213-0.105c0.032,0.092,0.006,0.179-0.055,0.25
	c0.113-0.011,0.118-0.156,0.131-0.244c0.01-0.061,0.16,0.02,0.176,0.062c0.023,0.069-0.045,0.211-0.021,0.255
	c0.047,0.087,0.104-0.149,0.109-0.181c0.015-0.094,0.16-0.04,0.194,0.023c0.069,0.129,0.095,0.026,0.201,0.043
	c0.138,0.02,0.049,0.139,0.138,0.162c0.095,0.024,0.125,0.131,0.066,0.213c0.211-0.004,0.026,0.274-0.005,0.356
	c-0.011,0.032,0,0.084-0.019,0.112c-0.013,0.019-0.062,0.018-0.082,0.037c-0.056,0.055-0.102,0.113-0.152,0.173
	c-0.131,0.153-0.271-0.128-0.268-0.231c0-0.035,0.002-0.054,0.014-0.089c0.015-0.049-0.018-0.049-0.012-0.087
	c0.003-0.032,0.049-0.04,0.038-0.077c-0.014-0.051-0.025-0.098-0.07-0.132c-0.033,0.125-0.101,0.219-0.081,0.35
	c0.019,0.129,0.027,0.271,0.168,0.32c-0.104,0.088-0.438,0.025-0.512-0.088c-0.051-0.08-0.192-0.066-0.222-0.126
	c-0.054-0.11,0.027-0.147,0.105-0.237c-0.1,0.037-0.147,0.11-0.238,0.147c-0.093,0.038-0.18,0.065-0.279,0.075
	c-0.218,0.021-0.431,0.088-0.649,0.084c0.193-0.188,0.55-0.181,0.81-0.258c-0.049-0.084-0.081-0.147-0.188-0.158
	c-0.069-0.008-0.147,0.035-0.218,0.014c-0.084-0.025-0.168-0.213-0.249-0.221c-0.085-0.006-0.111,0.139-0.199,0.033
	c-0.072,0.118-0.198,0.246-0.213,0.388c0.08-0.011,0.101,0.171,0.074,0.227c-0.047,0.101-0.152,0.042-0.224,0.073
	c-0.13,0.059-0.142,0.102-0.246-0.012c-0.077-0.084-0.125-0.199-0.204-0.278c-0.111-0.108-0.327-0.224-0.464-0.296
	c-0.164-0.087-0.329-0.176-0.493-0.262c0.038,0.244,0.428,0.209,0.558,0.416c0.079,0.125,0.122,0.256,0.216,0.373
	c0.06,0.076,0.143,0.138,0.213,0.203c-0.073,0.07-0.17,0.103-0.245,0.168c-0.108,0.094-0.17,0.133-0.305,0.178
	c-0.189,0.063-0.356,0.246-0.545,0.33c-0.19,0.086-0.358,0.242-0.542,0.349c-0.176,0.103-0.372,0.185-0.523,0.321
	c-0.038-0.166-0.082-0.31-0.223-0.42c-0.122-0.098-0.309-0.185-0.395-0.317c-0.053,0.074,0.247,0.418,0.307,0.491
	c0.104,0.129,0.229,0.456,0.02,0.533c-0.109,0.039-0.135,0.147-0.223,0.216c-0.081,0.062-0.12,0.173-0.183,0.252
	c-0.067,0.089-0.118,0.123-0.146,0.233c-0.018,0.071,0.037,0.188,0.041,0.27c0.006,0.172-0.18,0.32-0.206,0.503
	c-0.023,0.174-0.063,0.372-0.033,0.548c0.068,0.407,0.076,0.787-0.01,1.194c-0.134,0.213-0.472,0.475-0.493,0.722
	c-0.006,0.059-0.105,0.109-0.142,0.155c-0.044,0.055-0.072,0.122-0.094,0.188c-0.048,0.155-0.111,0.274-0.141,0.438
	c-0.008,0.052-0.029,0.125-0.011,0.178c0.019,0.057,0.121,0.102,0.12,0.148c-0.003,0.132-0.145,0.226-0.179,0.373
	c-0.01,0.047,0.065,0.131,0.054,0.146c-0.056,0.071-0.103,0.152-0.159,0.221c-0.069,0.082-0.091,0.09-0.114,0.196
	c-0.021,0.097-0.022,0.162-0.111,0.222c0.007-0.002,0.012-0.006,0.018-0.008c-0.047,0.02-0.296,0.133-0.123,0.127
	c-0.018,0.125-0.037,0.162-0.116,0.26c-0.001,0.004-0.185,0.217-0.107,0.203c0.132-0.021,0.122,0.094,0.245,0.097
	c0.146,0.002,0.122,0.087-0.002,0.135c-0.065,0.026-0.284,0.106-0.134,0.155c-0.099-0.004-0.059,0.062-0.097,0.121
	c-0.05,0.072-0.161,0.061-0.186,0.162c0.168-0.035,0.31-0.067,0.403-0.228c0.016-0.026,0.02-0.118,0.035-0.125
	c0.034-0.013,0.07,0.003,0.101-0.012c0.065-0.032,0.108-0.066,0.162-0.113c-0.009,0.026-0.018,0.052-0.026,0.078
	c-0.018,0.049-0.052,0.129-0.037,0.183c0.011,0.043,0.06,0.069,0.071,0.12c0.009,0.033-0.062,0.073-0.092,0.087
	c-0.021,0.01-0.064,0.004-0.088,0.006c-0.033,0.002-0.026,0.031-0.052,0.045c-0.189,0.092-0.456,0.047-0.655,0.145
	c-0.062,0.029-0.119,0.068-0.188,0.075c-0.055,0.005-0.106,0.002-0.153,0.03c-0.119,0.069-0.17,0.131-0.256,0.242
	c-0.148,0.194-0.18,0.368-0.201,0.6c-0.024,0.253-0.291,0.394-0.465,0.551c-0.084,0.076-0.138,0.16-0.234,0.223
	c-0.098,0.063-0.131,0.149-0.216,0.223c-0.146,0.127-0.477,0.209-0.268,0.455c0.221,0.258-0.293,0.234-0.375,0.285
	c0.102,0.045,0.13,0.028,0.092,0.137c-0.021,0.062-0.069,0.1-0.121,0.14c-0.124,0.097-0.226,0.082-0.212,0.267
	c-0.075-0.064-0.1-0.088-0.198-0.097c-0.044-0.004-0.176,0.019-0.191,0.006c0.013,0.011,0.036,0.013,0.053,0.017
	c-0.066,0.027-0.105,0.021-0.105,0.095c-0.001,0.048,0.014,0.08-0.033,0.103c-0.084,0.037-0.213,0.123-0.309,0.129
	c-0.156,0.008-0.162-0.086-0.288,0.045c-0.051,0.054-0.195,0.179-0.251,0.069c0.003-0.026,0.018-0.241-0.034-0.222
	c-0.077,0.027-0.064,0.102-0.053,0.16c0.021,0.105-0.265,0.119-0.345,0.146c-0.103,0.035-0.28-0.021-0.396-0.014
	c-0.037,0.002-0.193,0.02-0.2-0.02c-0.016-0.084-0.032-0.139-0.071-0.213c-0.057-0.109-0.274-0.099-0.248-0.22
	c0.015-0.074,0.073-0.233-0.06-0.208c-0.045,0.008-0.142-0.002-0.175,0.021c-0.035,0.027-0.021,0.148-0.084,0.19
	c-0.094,0.062-0.149,0.084-0.262,0.084c-0.194-0.001-0.08-0.216-0.036-0.296c-0.097-0.008-0.191-0.011-0.288-0.012
	c-0.073-0.001-0.016,0.138-0.035,0.191c-0.069,0.188-0.344,0.039-0.46-0.007c0.095-0.054,0.158-0.112,0.237-0.188
	c-0.128-0.061-0.146-0.289-0.179-0.409c-0.009,0.092-0.018,0.184-0.026,0.276c-0.004,0.043-0.043,0.028-0.055,0.061
	c-0.009,0.021,0.002,0.051-0.006,0.075c-0.071,0.229-0.201-0.14-0.244-0.208c-0.107-0.165-0.194-0.284-0.39-0.342
	c-0.182-0.053-0.242,0.065-0.226,0.222c-0.086-0.041-0.176-0.106-0.273-0.108c-0.122-0.001-0.147,0.116-0.239,0.129
	c-0.04,0.004-0.108-0.093-0.146-0.08c-0.03,0.008-0.032,0.101-0.062,0.111c-0.055,0.02-0.217-0.133-0.253-0.161
	c-0.059-0.047-0.141-0.069-0.127-0.157c0.017-0.103,0.214-0.138,0.046-0.26c-0.087-0.062-0.169-0.121-0.255-0.188
	c-0.028-0.023,0.081-0.225,0.047-0.291c-0.039,0.062-0.065,0.132-0.128,0.172c-0.069,0.045-0.067-0.023-0.135-0.048
	c-0.098-0.036-0.265-0.128-0.366-0.093c-0.132,0.047-0.274,0.107-0.293,0.265c-0.016,0.147,0.057,0.228-0.146,0.214
	c-0.069-0.005-0.174-0.004-0.229,0.043c-0.064,0.057-0.095,0.046-0.185,0.045c-0.167-0.002-0.314-0.021-0.478-0.049
	c-0.11-0.02-0.235-0.038-0.348-0.039c-0.081-0.001-0.378-0.052-0.347,0.074c-0.104-0.021-0.174-0.063-0.282-0.064
	c-0.11-0.002-0.144,0.02-0.211-0.085c-0.048-0.073-0.158-0.173-0.025-0.209c0.075-0.021,0.076-0.146,0.148-0.205
	c0.039-0.032,0.194-0.229,0.187-0.229c0.073,0.001,0.047-0.05,0.021-0.101c-0.034-0.063-0.008-0.072,0.011-0.143
	c0.013-0.049,0.127-0.042,0.162-0.046c0.053-0.005,0.049-0.03,0.082-0.072c0.055-0.071,0.086-0.178,0.125-0.259
	c-0.146,0.121-0.197,0.24-0.381,0.295c-0.046,0.014-0.075,0.048-0.075,0.1c-0.001,0.092-0.021,0.086-0.079,0.145
	c-0.038,0.037-0.074,0.076-0.116,0.109c-0.043,0.03-0.059,0.125-0.088,0.141c-0.033,0.019-0.078-0.039-0.123-0.008
	c-0.049,0.033-0.098,0.066-0.146,0.1c0.026-0.084,0.062-0.171,0.071-0.259c0.015-0.116-0.027-0.17,0.077-0.242
	c0.083-0.056,0.47-0.126,0.407-0.247c-0.122,0.087-0.21,0.129-0.366,0.074c0.047-0.137,0.078-0.291,0.162-0.407
	c-0.098,0.044-0.116,0.046-0.158,0.138c-0.03,0.065-0.036,0.143-0.067,0.209c-0.041,0.084-0.119,0.17-0.135,0.258
	c-0.016,0.097-0.141,0.145-0.107,0.016c-0.078,0.054-0.214,0.188-0.271,0.092c-0.038-0.062-0.004-0.223-0.038-0.309
	c-0.061-0.148-0.11-0.178-0.089-0.352c0.014-0.095,0.036-0.258,0.151-0.289c0.112-0.031,0.213-0.048,0.321,0.004
	c0.07,0.031,0.067-0.012,0.106-0.074c0.029-0.047,0.07-0.053,0.122-0.071c0.112-0.041,0.181-0.03,0.284-0.103
	c0.07-0.049,0.22,0.006,0.293,0.026c0.012-0.177,0.121-0.223,0.271-0.257c-0.14-0.023-0.293-0.02-0.436-0.03
	c-0.056-0.004-0.329,0.12-0.239-0.075c0.054-0.117,0.292-0.168,0.405-0.213c0.134-0.055,0.201-0.074,0.234-0.22
	c-0.079,0.03-0.157,0.06-0.236,0.089c-0.066,0.025-0.046,0.057-0.097,0.098c-0.093,0.074-0.22,0.096-0.331,0.117
	c-0.003-0.063-0.066-0.218-0.014-0.27c0.071-0.07,0.141-0.113,0.228-0.164c0.074-0.044,0.145-0.016,0.223-0.045
	c0.093-0.034,0.177-0.057,0.273-0.076c-0.093-0.005-0.186-0.008-0.278-0.012c0.154-0.098,0.307-0.121,0.309-0.318
	c-0.079,0.077-0.166,0.145-0.257,0.209c-0.056,0.039-0.199,0.15-0.269,0.149c-0.107-0.001-0.171,0.061-0.252,0.12
	c-0.04,0.029-0.134,0.018-0.184,0.022c0-0.093-0.037-0.336,0.107-0.303c-0.035-0.188-0.023-0.591,0.284-0.491
	c0.09,0.029,0.186,0.164,0.302,0.116c0.036-0.015,0.094-0.111,0.123-0.144c0.025-0.028,0.111-0.01,0.148-0.01
	c-0.009-0.087-0.078-0.055-0.142-0.049c-0.064,0.006-0.085,0.064-0.122,0.115c-0.089,0.122-0.228-0.114-0.248-0.176
	c-0.067,0.091-0.175,0.016-0.26-0.012c0.055-0.127,0.111-0.252,0.171-0.377c0.043-0.091,0.05-0.07,0.15-0.052
	c0.039,0.007,0.108-0.026,0.11-0.079c0.002-0.045-0.101-0.113-0.119-0.156c-0.033-0.078-0.045-0.043,0.019-0.136
	c0.068-0.099,0.058-0.267,0.194-0.253c-0.002,0.18,0.005,0.287,0.087,0.443c0.036,0.072,0.063,0.107,0.055,0.187
	c-0.005,0.046-0.133,0.021-0.176,0.021c0.118,0.109,0.257,0.184,0.377,0.296c0.083,0.077,0.205,0.356,0.318,0.346
	c-0.104-0.229-0.176-0.418-0.426-0.504c-0.024-0.009-0.009-0.11,0.014-0.128c0.049-0.04,0.1-0.051,0.161-0.069
	c0.126-0.038,0.187-0.007,0.275,0.077c0.044-0.078-0.04-0.146-0.082-0.209c-0.038-0.055-0.104,0.044-0.165,0.057
	c-0.109,0.021-0.157,0.063-0.219-0.031c-0.043-0.066-0.07-0.133-0.097-0.207c-0.027-0.075-0.095-0.402-0.025-0.467
	c0.117-0.112,0.256,0.282,0.396,0.229c-0.134-0.045-0.124-0.261-0.23-0.289c-0.146-0.038,0.02-0.179,0.062-0.216
	c0.05,0.07,0.273,0.477,0.335,0.342c-0.067-0.034-0.092-0.076-0.072-0.148c0.007-0.025,0.125-0.019,0.162-0.059
	c-0.144-0.021-0.212,0.012-0.317-0.096c-0.037-0.038-0.054-0.282,0.005-0.258c0.164,0.067,0.415,0.137,0.593,0.088
	c-0.067-0.059-0.113-0.053-0.199-0.055c-0.072,0-0.103-0.078-0.168-0.08c-0.159-0.002-0.195-0.138-0.051-0.215
	c0.088-0.048,0.04-0.098,0.119-0.146c0.04-0.024-0.009-0.054,0.012-0.081c0.016-0.023,0.046-0.045,0.065-0.064
	c0.074-0.072-0.028-0.1,0.103-0.152c0.066-0.027,0.071-0.022,0.121-0.092c0.115,0.105,0.234,0.279,0.116,0.436
	c0.153,0.023,0.153,0.098,0.11,0.227c0.037-0.055,0.163-0.089,0.175-0.146c0.009-0.038-0.124-0.185-0.148-0.222
	c-0.048-0.069-0.155-0.34-0.13-0.433c0.032-0.114,0.267-0.284,0.371-0.198c0.112,0.092,0.077,0.101,0.062,0.219
	c-0.017,0.117-0.022,0.119,0.069,0.193c-0.015-0.125-0.053-0.186,0.05-0.266c0.108-0.085-0.059-0.15-0.098-0.203
	c-0.1-0.139,0.023-0.165,0.137-0.163c0.069,0.001,0.159,0.128,0.202,0.177c0.064-0.162-0.236-0.263-0.209-0.371
	c0.024-0.098,0.021-0.127,0.106-0.18c0.067-0.04,0.111,0.029,0.169,0.073c0.056-0.087-0.059-0.088-0.058-0.157
	c0-0.023,0.121-0.138,0.14-0.154c0.028-0.023,0.064-0.041,0.094-0.061c0.023-0.016,0.063,0.007,0.081-0.007
	c0.052-0.037,0.067-0.11,0.132-0.154c0.038,0.159,0.03,0.17,0.186,0.224c0.148,0.053,0.152,0.056,0.2,0.207
	c0.069-0.131-0.083-0.246-0.175-0.306c-0.139-0.092-0.105-0.167-0.104-0.327c0-0.052-0.015-0.132,0.002-0.179
	c0.005-0.015,0.054-0.011,0.061-0.024c0.012-0.024,0.012-0.062,0.017-0.088c0.022-0.134,0.085-0.166,0.162-0.258
	c0.034-0.041,0.054-0.102,0.073-0.15c0.01-0.022,0.125-0.067,0.152-0.088c0.102-0.074-0.016-0.207,0.144-0.205
	c0.132,0.002,0.243,0.019,0.245-0.142c0.002-0.137-0.182-0.086-0.22-0.187c0.104-0.039,0.195-0.062,0.259-0.153
	c0.055-0.08,0.121-0.144,0.196-0.204c0.083-0.066,0.16-0.126,0.206-0.225c0.023-0.047,0.161-0.186,0.157-0.209
	c-0.008-0.049-0.01-0.104,0.028-0.143c0.023-0.025,0.048-0.05,0.072-0.074c0.02-0.021-0.003-0.043,0.01-0.062
	c0.05-0.066,0.01-0.069,0.105-0.068c0.038,0.002,0.076,0.002,0.113,0c0.236-0.006,0.384-0.102,0.576-0.234
	c0.05,0.138,0.128,0.197,0.271,0.141c0.113-0.043,0.273-0.037,0.345-0.13c0.093-0.117,0.153-0.248,0.263-0.349
	c0.154-0.141,0.218,0.043,0.379,0.078c0.202,0.047,0.091-0.082,0.02-0.194c-0.067-0.108,0.054-0.216,0.119-0.275
	c0.077-0.071,0.132-0.166,0.2-0.247c0.05-0.059,0.126-0.208,0.191-0.238c0.191-0.094,0.321-0.232,0.488-0.336
	c0.082-0.053,0.186-0.154,0.291-0.153c0.124,0.002,0.197-0.007,0.292-0.099c0.059-0.058,0.105-0.045,0.186-0.043
	c0.036,0,0.075-0.066,0.096-0.095c0.022-0.03,0.047-0.112,0.088-0.112c0.092,0.002,0.092,0.006,0.142-0.07
	c0.129-0.204,0.127-0.446,0.321-0.612c0.036-0.03,0.102-0.112,0.148-0.118c0.047-0.005,0.109,0.001,0.153-0.018
	c0.134-0.059,0.187-0.086,0.273-0.2c0.053-0.071,0.109-0.233,0.182-0.276c0.079-0.05,0.189-0.135,0.248-0.205
	c0.016-0.019-0.01-0.052,0.012-0.07c0.027-0.025,0.056-0.051,0.084-0.075c0.033-0.031,0.078-0.06,0.106-0.097
	c0.067-0.082,0.056-0.203,0.121-0.274c0.046-0.049,0.078-0.095,0.113-0.153c0.021-0.037,0.106-0.027,0.145-0.044
	c0.087-0.038,0.2-0.124,0.272-0.188c0.062-0.056,0.144-0.206,0.24-0.216c0.13-0.012,0.231-0.045,0.355-0.086
	c0.1-0.035,0.166-0.164,0.237-0.242c0.073-0.082,0.204-0.125,0.299-0.178c0.079-0.043,0.172-0.15,0.234-0.22
	c0.064-0.071,0.079-0.169,0.146-0.26c0.062-0.088,0.111-0.229,0.18-0.306c0.083-0.092,0.156-0.183,0.229-0.283
	c0.061-0.086,0.151-0.145,0.213-0.233c0.07-0.1,0.118-0.186,0.163-0.3c0.023-0.057,0.07-0.095,0.112-0.139
	c0.034-0.037,0.048-0.114,0.064-0.161c0.036-0.093,0.061-0.188,0.082-0.286c0.027-0.119,0.094-0.21,0.096-0.334
	c0.001-0.066,0.117-0.122,0.145-0.212c0.07-0.228,0.194-0.394,0.23-0.634c0.036-0.233-0.054-0.463,0.06-0.678
	c0.114-0.214,0.111-0.463,0.146-0.703c0.016-0.107,0.104-0.191,0.121-0.303c0.019-0.121,0.003-0.22-0.014-0.342
	c-0.021-0.148,0.059-0.173,0.181-0.167c0.127,0.006,0.186-0.03,0.308-0.052c0.122-0.022,0.225,0.039,0.325-0.045
	c0.076-0.062,0.154-0.121,0.229-0.186c0.18-0.154,0.338-0.324,0.461-0.529c0.117-0.196,0.17-0.428,0.295-0.617
	c0.082-0.124,0.157-0.208,0.267-0.311c0.064-0.06,0.043-0.24,0.051-0.326c0.01-0.111,0.076-0.217,0.084-0.328
	c0.007-0.092-0.031-0.188-0.031-0.281c-0.003-0.234,0.011-0.473-0.008-0.705c-0.021-0.26-0.031-0.48,0.049-0.73
	c0.034-0.105,0.132-0.195,0.201-0.279c0.038-0.045,0.101-0.232,0.156-0.239c0.048-0.006,0.15,0.002,0.184-0.034
	c0.034-0.038,0.056-0.115,0.086-0.145c0.072-0.066,0.188-0.106,0.265-0.176c0.169-0.151,0.364-0.244,0.532-0.395
	c-0.006,0.076-0.036,0.23,0.076,0.205c0.093-0.021,0.105-0.125,0.107-0.212c0.002-0.167,0.118-0.005,0.2-0.103
	c0.007-0.007,0.009-0.132,0.001-0.138c-0.014-0.015-0.106-0.002-0.13-0.002c0.057-0.3,0.609-0.214,0.819-0.252
	c0.157-0.029,0.253,0.007,0.39,0.067c0.065,0.028,0.382,0.107,0.259,0.229c-0.062,0.059-0.257-0.098-0.347-0.119
	c-0.151-0.035-0.285-0.051-0.442-0.047c-0.159,0.005-0.228,0.098-0.28,0.248c-0.029,0.082-0.007,0.345-0.117,0.311
	c0.014,0.099,0.039,0.178,0.072,0.271c0.011,0.032-0.047,0.065-0.041,0.095c0.004,0.024,0.092,0.069,0.11,0.09
	c0.117,0.118,0.221,0.284,0.387,0.336c0.197,0.062,0.31,0.008,0.47-0.104c0.08-0.055,0.192-0.009,0.19,0.083
	c-0.002,0.114-0.004,0.169-0.056,0.269c0.074-0.012,0.138-0.026,0.209-0.05c-0.001,0.108-0.046,0.209-0.047,0.312
	c-0.001,0.101,0.013,0.176-0.046,0.265c-0.093,0.142-0.071,0.249-0.042,0.413c0.025,0.141,0.039,0.307,0.113,0.431
	c0.08,0.134,0.164,0.261,0.252,0.388c-0.044,0.021-0.087,0.041-0.131,0.061c0.136,0.109,0.272,0.225,0.447,0.257
	c0.011-0.215,0.214-0.231,0.344-0.376c0.055-0.062,0.045-0.14,0.114-0.209c0.088-0.085,0.219-0.15,0.316-0.23
	c-0.049,0.18,0.143,0.058,0.2,0.002c0.056-0.055,0.06-0.135,0.124-0.197c-0.004,0.005-0.006,0.012-0.008,0.018
	c0-0.027,0.219-0.242,0.278-0.231c0.092,0.015,0.076,0.161,0.082,0.224c0.009,0.086,0.148-0.083,0.181-0.104
	c0.054-0.03,0.256-0.08,0.138-0.168c-0.042,0.047-0.179,0.139-0.16,0.004c0.018-0.143,0.067-0.109,0.173-0.188
	c0.081-0.059,0.174-0.084,0.266-0.128c0.058-0.028,0.068-0.157,0.145-0.204c0.001,0.073-0.005,0.146-0.011,0.217
	c0.123-0.014,0.195-0.017,0.209-0.149c0.009-0.095,0.164-0.155,0.235-0.195c0.064-0.034,0.133,0.056,0.136,0.105
	c0.008,0.18-0.073-0.005-0.152,0.011c0.029,0.064-0.004,0.095-0.071,0.077c0.103,0.13-0.092,0.108-0.166,0.153
	c0.031,0.021,0.063,0.043,0.094,0.062c-0.101,0.052-0.347,0.3-0.364,0.074c-0.07,0.013-0.086,0.042-0.114,0.094
	c-0.015,0.027,0.046,0.023,0.009,0.059c-0.024,0.025-0.045,0.033-0.045,0.067c-0.002,0.133-0.004,0.187-0.099,0.28
	c0.175,0.013,0.171-0.133,0.27-0.23c0.084-0.08,0.32-0.008,0.418,0.022c-0.1-0.011-0.101,0.085-0.156,0.085
	c-0.074-0.001-0.16,0.042-0.055,0.104c-0.022,0.039-0.122,0.063-0.122,0.076c-0.001,0.102-0.07,0.003-0.096,0.077
	c-0.018,0.052-0.096,0.008-0.146,0.022c-0.028,0.01-0.014,0.14-0.014,0.166c0.025-0.062,0.178-0.113,0.235-0.066
	c0.061,0.05,0.019,0.191-0.001,0.249c-0.01,0.03-0.02,0.108-0.051,0.121c-0.033,0.012-0.112,0.013-0.136,0.026
	c-0.075,0.051-0.137,0.092-0.227,0.11c0.151,0.011,0.292,0.047,0.442,0.05c-0.027-0.046-0.07-0.08-0.12-0.098
	c0.033-0.059,0.199-0.061,0.27-0.109c-0.204-0.097,0.275-0.129,0.334-0.141c0.163-0.032,0.315-0.059,0.433-0.173
	c-0.09,0.014-0.178,0.026-0.268,0.022c0.012-0.021,0.008-0.051,0.02-0.072c-0.043-0.006-0.129,0-0.149,0.047
	c-0.042,0.092-0.05,0.041-0.118,0.049c-0.047,0.005-0.294,0.054-0.293,0.002c0.001-0.053-0.06-0.123-0.057-0.156
	c0.009-0.084,0.106-0.046,0.164-0.089c0.005-0.004-0.019-0.04,0.024-0.067c0.024-0.017,0.017-0.035,0.017-0.063
	c0.001-0.076,0.126-0.088,0.184-0.101c-0.072,0.07-0.069,0.17-0.082,0.266c0.023-0.012,0.055-0.021,0.079-0.014
	c0.049,0.017,0.056-0.076,0.074-0.107c0.044-0.078,0.108-0.008,0.161,0.027c-0.023-0.029-0.146-0.236-0.152-0.229
	c0.038-0.04,0.273-0.071,0.144-0.194c-0.072-0.068-0.154,0.066-0.212,0.088c-0.041,0.017-0.095-0.031-0.127-0.056
	c-0.047-0.036,0.037-0.092,0.054-0.12c0.024-0.041,0.009-0.084,0.062-0.102c0.058-0.02,0.103-0.036,0.103-0.104
	c0.034,0.149-0.035,0.179,0.135,0.189c0.019-0.143-0.042-0.249,0.127-0.277c-0.005,0.082-0.016,0.162-0.035,0.242
	c-0.023,0.09,0.04,0.164,0.081,0.245c0.006-0.082,0.011-0.164,0.016-0.247c0.065,0.021,0.097,0.086,0.136,0.139
	c0.009-0.08,0.062-0.191,0.003-0.254c0.127-0.021,0.016,0.129,0.108,0.17c0.094,0.041,0.147-0.101,0.178-0.153
	c0.071,0.143-0.094,0.142-0.077,0.263c0.006,0.05-0.095,0.02-0.109,0.08c-0.016,0.066,0.123,0.089,0.154,0.095
	c0.042,0.009,0.054-0.083,0.087-0.112c0.033-0.028,0.095-0.041,0.135-0.063c0.114-0.062,0.043-0.169,0.143-0.258
	c0,0.081-0.016,0.161-0.021,0.241c-0.002,0.023-0.104,0.057-0.126,0.09c-0.026,0.037-0.01,0.107-0.051,0.154
	c-0.022,0.026-0.047,0.051-0.065,0.082c-0.016,0.023,0.012,0.043,0.002,0.062c-0.012,0.021,0.012,0.065-0.021,0.063
	c-0.017-0.002-0.064-0.014-0.077-0.006c-0.011,0.006-0.081-0.033-0.033,0.027c0.021,0.027,0.048,0.025,0.025,0.053
	c-0.08,0.1-0.143-0.15-0.154-0.187c-0.039,0.103-0.102,0.153,0.036,0.213c0.076,0.032,0.038,0.182,0.03,0.243
	c-0.037-0.01-0.073-0.031-0.098-0.06c-0.051,0.046-0.049,0.147-0.131,0.083c-0.002,0.022-0.019,0.043-0.02,0.065
	c-0.08-0.097-0.09,0.005-0.157,0.03c-0.052,0.02-0.115-0.037-0.127,0.041c-0.011,0.064-0.116-0.008-0.145,0.014
	c-0.054,0.043-0.092,0.087-0.166,0.099c-0.032,0.007-0.195,0.062-0.126,0.113c0.059,0.042,0.135-0.082,0.174-0.072
	c0.045,0.011,0.18,0.075,0.218,0.07c0.043-0.006,0.118-0.108,0.145-0.142c0.029,0.138,0.162-0.064,0.244-0.041
	c0.093,0.028,0.033,0.072,0.139,0.066c0.089-0.005,0.112-0.025,0.19-0.051c0.092-0.03-0.013-0.123,0.066-0.162
	c0.071-0.034,0.103-0.107,0.173-0.145c0.108-0.058,0.231-0.039,0.229-0.195c-0.042,0.081-0.282,0.064-0.221-0.035
	c0.01-0.016,0.175-0.055,0.194-0.066c0.061-0.029,0.099-0.098,0.135-0.151C73.733,58.032,73.66,58.168,73.647,58.354 M89.006,43.171
	c-0.088,0.127-0.167,0.259-0.262,0.38c-0.05,0.062-0.107,0.108-0.168,0.159c-0.036,0.031-0.022,0.181-0.019,0.23
	c0.003,0.045-0.018,0.06-0.045,0.096c-0.019,0.023-0.007,0.083-0.007,0.111c-0.001,0.074-0.089,0.14-0.15,0.166
	c-0.16,0.072-0.012,0.328,0.027,0.442c0.007,0.02-0.117,0.126-0.137,0.128c-0.047,0.004-0.07-0.009-0.071,0.04
	c0,0.049-0.001,0.097-0.002,0.146c0,0.076,0.093,0.032,0.06,0.121c-0.019,0.05-0.059,0.106-0.063,0.158
	c-0.006,0.056-0.091,0.097-0.059,0.155c0.043,0.074,0.067,0.092,0.143,0.134c-0.075,0.06-0.095,0.068-0.105,0.162
	c-0.006,0.055,0.006,0.15-0.051,0.166c-0.077,0.023-0.091,0.109-0.001,0.117c0.036,0.003,0.056-0.008,0.056,0.029
	c0,0.021,0.011,0.088-0.006,0.102c-0.056,0.045-0.11,0.09-0.161,0.141c-0.06,0.058-0.042,0.205-0.054,0.285
	c-0.021,0.132-0.168,0.224-0.283,0.279c-0.116,0.056-0.174,0.232-0.282,0.305c-0.091,0.062-0.145,0.063-0.209,0.164
	c-0.052,0.082-0.09,0.097-0.15,0.017c-0.029-0.038-0.124-0.072-0.171-0.074c-0.099-0.005-0.121,0.04-0.16,0.115
	c-0.025,0.049-0.073,0.138-0.062,0.195c0.019,0.085,0.104,0.057,0.165,0.054c-0.046,0.042-0.134,0.095-0.161,0.151
	c-0.019,0.039-0.037,0.079-0.057,0.118c-0.015,0.032,0.007,0.077-0.004,0.11c-0.009,0.027-0.042,0.033-0.048,0.064
	c-0.008,0.041-0.021,0.081-0.024,0.122c-0.009,0.08-0.017,0.159-0.026,0.238c-0.023,0.166-0.059,0.339-0.05,0.507
	c0.004,0.085,0,0.149,0.088,0.189c0.093,0.042,0.16,0.058,0.263,0.071c-0.021,0.092-0.055,0.105-0.133,0.16
	c-0.048,0.035-0.134,0.091-0.144,0.149c-0.022,0.158-0.115,0.285-0.244,0.379c-0.037-0.124-0.113-0.312-0.099-0.443
	c0.008-0.064,0.063-0.139,0.081-0.204c0.026-0.087,0.039-0.171,0.052-0.261c0.006-0.041-0.116-0.038-0.157-0.043
	c-0.102-0.012-0.191-0.048-0.291-0.065c-0.176-0.031-0.346-0.034-0.523-0.037c-0.146-0.001-0.294-0.009-0.44-0.004
	c-0.147,0.005-0.35-0.016-0.452,0.099c-0.1,0.11-0.255,0.133-0.38,0.2c-0.111,0.06-0.255,0.197-0.377,0.212
	c-0.1,0.012-0.149,0.018-0.233,0.073c-0.056,0.036-0.079,0.132-0.108,0.19c-0.029,0.06-0.035,0.139-0.061,0.203
	c-0.024,0.057-0.101,0.113-0.149,0.151c-0.092,0.069-0.202,0.206-0.241,0.317c-0.045,0.131-0.034,0.28-0.032,0.421
	c0.022-0.005,0.047-0.011,0.069-0.016c0.008,0.14,0,0.303,0.059,0.432c0.025,0.062,0.032,0.133,0.073,0.183
	c0.066,0.079,0.087,0.095,0.189,0.108c0.057,0.01,0.178-0.012,0.219,0.021c0.072,0.059,0.009,0.143-0.044,0.195
	c-0.11,0.105-0.155,0.295-0.181,0.438c-0.007,0.045-0.024,0.082-0.034,0.125c-0.012,0.045,0.005,0.098-0.009,0.143
	c-0.021,0.072-0.089,0.096-0.13,0.162c-0.044,0.07-0.034,0.15-0.122,0.162c-0.064,0.009-0.085,0.164-0.1,0.209
	c-0.022,0.074-0.06,0.142-0.096,0.211c-0.035,0.067-0.033,0.139-0.039,0.213c-0.006,0.066-0.072,0.127-0.072,0.188
	c-0.001,0.032,0.01,0.086-0.001,0.114c-0.015,0.037-0.067,0.062-0.088,0.095c-0.044,0.07-0.062,0.129-0.118,0.196
	c-0.04,0.05-0.115,0.08-0.176,0.101c-0.064,0.021-0.168,0.041-0.217,0.094c-0.056,0.058-0.076,0.207-0.12,0.283
	c-0.032,0.056-0.031,0.135-0.059,0.195c-0.037,0.082-0.064,0.163-0.092,0.249c-0.021,0.071-0.054,0.113-0.038,0.187
	c0.017,0.078,0.03,0.156-0.023,0.218c-0.046,0.052-0.138,0.01-0.201,0.028c-0.063,0.017-0.129,0.073-0.181,0.114
	c-0.062,0.05-0.134,0.085-0.156,0.163c-0.022,0.077-0.031,0.159-0.111,0.186c-0.146,0.047-0.146,0.272-0.276,0.324
	c-0.108,0.043-0.112,0.051-0.155,0.16c-0.026,0.066-0.083,0.119-0.119,0.18c-0.039,0.066-0.08,0.127-0.128,0.187
	c-0.072,0.089-0.088,0.106-0.097,0.22c-0.014,0.172-0.111,0.244-0.21,0.37c-0.049,0.063-0.075,0.11-0.076,0.187
	c0,0.027-0.057,0.031-0.07,0.052c-0.02,0.028-0.003,0.081-0.023,0.112c-0.052,0.074-0.093,0.149-0.134,0.23
	c-0.047,0.092-0.116,0.157-0.139,0.26c-0.018,0.086-0.02,0.188-0.117,0.196c-0.061,0.005-0.098,0.12-0.141,0.168
	c-0.066,0.072-0.147,0.073-0.179,0.172c-0.029,0.089-0.066,0.142-0.129,0.214c-0.023,0.026-0.058,0.029-0.093,0.039
	c-0.025,0.008-0.045,0.061-0.058,0.082c-0.018,0.027-0.071,0.018-0.092,0.04c-0.026,0.029-0.028,0.128-0.047,0.169
	c-0.035,0.081-0.111,0.098-0.188,0.135c-0.065,0.033-0.13,0.095-0.194,0.133c-0.062,0.037-0.132,0.046-0.199,0.068
	c-0.064,0.021-0.118,0.086-0.16,0.137c-0.053,0.067-0.059,0.1-0.141,0.119c-0.082,0.021-0.143,0.051-0.218,0.092
	c-0.125,0.068-0.176,0.193-0.286,0.283c-0.054,0.045-0.133-0.019-0.195-0.008c-0.099,0.016-0.142,0.061-0.211,0.129
	c-0.073,0.07-0.374,0.004-0.406-0.101c-0.058-0.181-0.033-0.367-0.042-0.556c-0.007-0.135-0.179-0.25-0.285-0.309
	c-0.076-0.041-0.12-0.051-0.207-0.057c-0.04-0.002-0.103-0.02-0.136,0.008c-0.038,0.029-0.067,0.086-0.109,0.107
	c-0.035,0.017-0.171,0.113-0.2,0.103c-0.023-0.008-0.092-0.019-0.098-0.044c-0.012-0.05-0.019-0.062-0.053-0.098
	c-0.038-0.04-0.091-0.165-0.071-0.223c0.019-0.054,0.079-0.096,0.08-0.156c0.001-0.045,0.001-0.092,0.002-0.137
	c0.001-0.076-0.023-0.111-0.092-0.154c-0.017-0.01-0.073-0.058-0.085-0.043c-0.024,0.033-0.039,0.059-0.074,0.076
	c-0.157,0.075-0.228,0.166-0.229,0.34c-0.001,0.043,0,0.08-0.01,0.121c-0.013,0.049-0.022,0.03-0.07,0.033
	c-0.084,0.006-0.132-0.008-0.189-0.072c-0.115-0.123-0.157-0.326-0.071-0.472c0.074-0.122,0.261-0.132,0.338-0.252
	c0.044-0.067,0.083-0.135,0.123-0.204c0.014-0.021,0.078-0.033,0.101-0.05c0.049-0.035,0.065-0.103,0.113-0.144
	c0,0.051-0.005,0.099-0.011,0.148c0.02-0.004,0.086-0.006,0.088-0.025c0.004-0.041,0.021-0.088-0.004-0.123
	c-0.062-0.088-0.077-0.125,0.004-0.203c0.052-0.051,0.109-0.083,0.17-0.059c0.048,0.019,0.084-0.012,0.102-0.057
	c0.007-0.018,0.052-0.152,0.035-0.169c-0.001-0.001-0.005,0.006-0.005,0.007c0.034-0.204,0.084-0.413,0.238-0.556
	c0.081-0.075,0.191-0.13,0.249-0.228c0.05-0.088,0.072-0.193,0.118-0.283c0.11-0.211,0.164-0.444,0.288-0.65
	c0.063-0.104,0.032-0.281,0.058-0.403c0.023-0.103,0.047-0.249,0.17-0.157c0.04-0.065-0.037-0.078-0.085-0.09
	c-0.052-0.013-0.041-0.041-0.05-0.094c-0.011-0.066,0.02-0.152,0.028-0.221c0.022-0.188,0.034-0.321,0.002-0.506
	c-0.026-0.149-0.005-0.295-0.048-0.441c-0.046-0.156-0.081-0.309-0.146-0.458c-0.059-0.137-0.124-0.265-0.207-0.39
	c-0.092-0.137-0.207-0.219-0.32-0.336c-0.1-0.103-0.213-0.258-0.336-0.322c-0.16-0.082-0.316-0.096-0.493-0.098
	c-0.064,0-0.128,0.015-0.192,0.023c0.073-0.059-0.267-0.184-0.331-0.195c-0.069-0.013-0.178-0.012-0.239-0.045
	c-0.06-0.033-0.093-0.121-0.148-0.162c-0.137-0.099-0.273-0.199-0.408-0.299c-0.053-0.039-0.089-0.123-0.126-0.178
	c-0.043-0.062-0.108-0.111-0.157-0.171c-0.091-0.106-0.182-0.255-0.331-0.291c-0.069-0.017-0.142-0.03-0.209-0.053
	c-0.109-0.039-0.215-0.029-0.323-0.052c-0.16-0.034-0.293-0.098-0.44-0.168c-0.074-0.035-0.146-0.07-0.218-0.109
	c-0.076-0.042-0.124-0.125-0.178-0.192c-0.116-0.142-0.27-0.33-0.285-0.519c-0.01-0.118-0.001-0.238,0.001-0.353
	c0.001-0.079-0.007-0.263,0.059-0.32c0.168-0.148,0.344-0.281,0.494-0.448c0.02-0.022,0.083,0.039,0.12,0.002
	c0.041-0.039,0.086-0.074,0.13-0.111c0.042-0.035,0.073-0.085,0.108-0.128c0.017-0.021,0.104-0.012,0.137-0.012
	c0.018-0.04,0.133-0.105,0.16-0.126c0.045-0.034,0.09-0.069,0.134-0.104c0.063-0.05,0.178-0.071,0.254-0.093
	c-0.015-0.084,0.31-0.041,0.334-0.004c0-0.001-0.011-0.001-0.013-0.001c0.096,0.014,0.311,0.041,0.38-0.039
	c0.092-0.105,0.161-0.227,0.267-0.318c0.096-0.081,0.221-0.168,0.293-0.27c0.083-0.116,0.164-0.232,0.245-0.349
	c0.026-0.266,0.08-0.535,0.097-0.801c0.012-0.166,0.022-0.331,0.019-0.497c-0.002-0.096-0.004-0.105,0.06-0.175
	c0.049-0.056,0.079-0.102,0.114-0.168c0.084-0.157,0.107-0.283,0.115-0.459c0.007-0.158-0.029-0.306-0.049-0.462
	c-0.009-0.069-0.067-0.113,0.009-0.141c0.032-0.012,0.168-0.07,0.187-0.043c0.082,0.112,0.236,0.136,0.366,0.171
	c-0.1-0.145,0.079-0.133,0.112-0.247c0.013-0.047-0.002-0.108-0.056-0.135c-0.09-0.044-0.162,0.041-0.192,0.112
	c-0.045,0.103-0.07,0.04-0.069-0.034c0.001-0.088,0.03-0.116,0.085-0.181c0.039-0.047,0.084-0.065,0.138-0.093
	c0.023-0.012,0.023-0.049,0.043-0.064c0.019-0.016,0.055-0.024,0.077-0.034c-0.021-0.041-0.052-0.064-0.023-0.104
	c0.023-0.036,0.018-0.07,0.018-0.113c-0.098,0.004-0.164,0.006-0.254,0.046c-0.022,0.01-0.026,0.103-0.031,0.126
	c-0.012,0.063-0.02,0.074-0.064,0.119c0-0.079,0.041-0.32,0.002-0.386c-0.037-0.062-0.101-0.14-0.085-0.214
	c0.018-0.083,0.03-0.145,0.084-0.21c0.104-0.126,0.211-0.134,0.368-0.132c0.08,0.001,0.105,0,0.15-0.062
	c0.041-0.055,0.081-0.11,0.119-0.169c-0.052,0.024-0.116,0.042-0.162,0.075c-0.063,0.046-0.052,0.071-0.138,0.066
	c-0.101-0.007-0.104-0.005-0.156-0.093c-0.038-0.064-0.05-0.131-0.072-0.202c-0.039-0.128-0.072-0.256-0.104-0.387
	c-0.026-0.11-0.012-0.228-0.034-0.339c-0.029-0.144-0.048-0.238-0.127-0.36c-0.03-0.046-0.097-0.114-0.109-0.168
	c-0.006-0.026,0.007-0.144,0.025-0.161c0.048-0.042,0.096-0.084,0.143-0.125c0.031-0.027,0.093,0.037,0.14,0.043
	c0.056,0.008,0.083,0.029,0.116-0.014c0.03-0.038,0.107-0.161,0.137-0.144c-0.02-0.033-0.045-0.112-0.085-0.116
	c-0.062-0.006-0.122-0.012-0.183-0.018c0.021-0.04,0.041-0.08,0.062-0.12c-0.055,0.045-0.113,0.112-0.176,0.145
	c-0.035,0.019-0.084,0.025-0.122,0.037c-0.055,0.017-0.047,0.005-0.076-0.045c-0.074-0.132-0.154-0.259-0.222-0.394
	c-0.158-0.311-0.303-0.633-0.387-0.971c0.082,0.007,0.18,0.139,0.238,0.204c0.044,0.049,0.073,0.111,0.119,0.156
	c0.038,0.036,0.091,0.064,0.116,0.109c0.026,0.047,0.048,0.084,0.061,0.136c0.022,0.086,0.05,0.109,0.115,0.176
	c0.041,0.042-0.018-0.226-0.028-0.255c-0.033-0.097,0.072-0.157,0.139-0.227c0.07-0.076,0.115-0.127,0.218-0.131
	c0.063-0.002,0.089,0.002,0.127-0.048c0.05-0.064,0.052-0.062,0.134-0.061c0.05,0,0.103,0.01,0.152,0.015
	c0.057,0.006,0.088-0.025,0.136-0.055c-0.055-0.004-0.111-0.007-0.166-0.01c-0.042,0.025-0.396-0.113-0.214-0.142
	c-0.059-0.097-0.04-0.036-0.128-0.037c-0.082-0.001-0.138-0.007-0.174-0.097c-0.028-0.07,0.017-0.12,0.05-0.176
	c0.02-0.033,0.166-0.006,0.195-0.004c-0.02-0.12-0.022-0.104-0.146-0.112c-0.08-0.005-0.16-0.004-0.24-0.005
	c-0.147-0.002-0.266,0.11-0.365,0.207c-0.077,0.075-0.298,0.223-0.409,0.153c-0.098-0.059-0.108-0.062-0.132-0.17
	c-0.018-0.077-0.033-0.153-0.058-0.228c-0.098-0.318-0.193-0.616-0.358-0.905c-0.147-0.257-0.278-0.541-0.458-0.776
	c-0.059-0.075-0.239-0.247-0.249-0.343c-0.015-0.126-0.046-0.297,0.094-0.366c-0.002,0.1,0.004,0.197,0.057,0.287
	c0.013-0.069,0.052-0.326,0.159-0.202c0.062,0.072,0.071,0.174,0.118,0.257c0.022,0.041,0.06,0.068,0.059,0.115
	C73.609,37.056,73.607,37,73.68,37.03c0.126,0.053,0.146,0.14,0.145,0.262c0.018-0.008,0.041-0.001,0.061-0.008
	c0,0.021-0.013,0.102,0.008,0.106c0.048,0.011,0.075,0.015,0.113,0.045c0.068,0.053,0.136,0.105,0.205,0.157
	c-0.024-0.054-0.092-0.123-0.097-0.174c-0.007-0.084-0.11-0.115,0.038-0.113c0.025,0,0.026-0.05-0.004-0.058
	c-0.021-0.005-0.126-0.019-0.123-0.04c0.015-0.088,0.118-0.06,0.199-0.066c-0.028-0.013-0.08-0.026-0.099-0.051
	c-0.018-0.022-0.034-0.044-0.052-0.067c-0.013-0.016,0.029-0.032,0.031-0.049c0.008-0.1-0.059-0.187-0.058-0.279
	c0.002-0.098,0.075-0.152,0.058-0.263c-0.005-0.03,0.033-0.1,0.041-0.135c0.009-0.036-0.067-0.025-0.015-0.095
	c-0.076-0.033-0.127-0.06-0.189-0.115c0.028,0.046,0.036,0.098,0.048,0.149c0.017,0.067-0.064,0.051-0.103,0.05
	c0.013,0.044,0.004,0.086-0.001,0.13c-0.116-0.026-0.189-0.118-0.249-0.211c-0.001,0.039,0.007,0.128-0.046,0.147
	c-0.071,0.025-0.096-0.062-0.109-0.105c-0.013-0.047,0.002-0.099,0.017-0.143c0.018-0.056,0.006-0.102,0.028-0.161
	c0.092,0.06,0.146,0.132,0.258,0.134c0.024,0,0.025-0.035,0.045-0.043c0.019-0.008,0.042-0.005,0.061-0.01
	c0.045-0.013,0.026-0.051,0.054-0.072c0.022-0.017,0.043,0.005,0.062-0.012c0.04-0.039,0.105-0.003,0.139-0.033
	c0.044-0.039-0.001-0.076,0.066-0.112c0.037-0.019,0.145-0.046,0.144-0.092c-0.002-0.064-0.065-0.092-0.11-0.124
	c-0.008,0.034-0.016,0.069-0.022,0.104c-0.009,0.043-0.042,0.034-0.075,0.059c-0.075,0.057-0.059,0.086-0.158,0.085
	c0.008-0.066,0.014-0.133,0.021-0.199c-0.025,0.067-0.05,0.133-0.08,0.199c-0.012-0.03-0.023-0.059-0.034-0.088
	c0.003,0.021,0.027,0.09,0.008,0.1c-0.04,0.022-0.065,0.029-0.084,0.07c-0.012,0.031-0.065,0.05-0.093,0.067
	c-0.019,0.011-0.054-0.058-0.073-0.069c-0.02-0.012-0.09-0.039-0.098-0.059c-0.004-0.011,0.027-0.114,0.036-0.121
	c0.075-0.055,0.108,0.086,0.19,0.028c-0.042-0.079-0.063-0.099-0.034-0.183c-0.009,0.023,0.144-0.029,0.158-0.041
	c0.072-0.052,0.062-0.092,0.063-0.175c0.001-0.097,0.078-0.068,0.14-0.057c-0.029-0.078-0.017-0.122-0.101-0.092
	c0.005-0.002-0.102-0.119-0.122-0.136c0.006,0.144,0.005,0.274-0.023,0.416c-0.044-0.016-0.097-0.051-0.143-0.038
	c-0.092,0.027-0.088,0.03-0.151-0.043c0.032,0,0.064,0,0.097,0.001c-0.011-0.11-0.023-0.087-0.132-0.083
	c-0.079,0.003-0.146-0.01-0.145-0.098c0.001-0.047,0.136-0.109,0.097-0.151c-0.011-0.012-0.096-0.001-0.114-0.002
	c-0.018,0-0.035,0.07-0.042,0.087c-0.012-0.02-0.031-0.034-0.044-0.053c-0.062,0.088-0.096,0.198-0.022,0.298
	c0.054,0.073,0.067,0.086,0.152,0.113c0.051,0.017,0.102,0.035,0.151,0.053c-0.037,0.04-0.119,0.149-0.179,0.129
	c-0.109-0.035-0.137-0.066-0.22-0.143c-0.069-0.064-0.133-0.105-0.183-0.186c-0.014-0.023-0.051-0.089-0.075-0.095
	c-0.031-0.007-0.107,0.041-0.143,0.048c-0.023,0.006-0.165-0.143-0.193-0.166c-0.069-0.057-0.088-0.136-0.133-0.213
	c-0.089-0.153-0.162-0.314-0.25-0.468c-0.112,0.034-0.053,0.229-0.021,0.304c0.054,0.126,0.136,0.207,0.234,0.297
	c0.079,0.074,0.143,0.169,0.214,0.251c0.065,0.075,0.226,0.202,0.14,0.301c0.118,0.002,0.151,0.037,0.227,0.126
	c0.067,0.079,0.098,0.103,0.004,0.181c0.062,0.032,0.143,0.055,0.163,0.132c0.006,0.019,0.008,0.202-0.008,0.211
	c-0.157,0.088-0.268,0.081-0.443,0.079c-0.121-0.002-0.122-0.318-0.137-0.405c-0.022-0.146-0.128-0.3-0.197-0.429
	c-0.148-0.279-0.346-0.531-0.53-0.786c-0.188-0.257-0.359-0.526-0.547-0.783c-0.168-0.23-0.347-0.452-0.518-0.68
	c-0.103-0.137-0.214-0.27-0.309-0.412c-0.084-0.127-0.159-0.264-0.263-0.377c-0.016-0.018-0.06-0.05-0.06-0.076
	c0.001-0.041,0.071-0.182,0.04-0.211c-0.064-0.058,0.332-0.016,0.281-0.087c-0.005-0.007-0.021-0.204-0.115-0.21
	c-0.072-0.005,0.049-0.061-0.019-0.066c-0.023-0.001-0.177,0.046-0.229,0.076c-0.052,0.029-0.093-0.081-0.143-0.048
	c-0.018,0.011,0.014,0.105,0.011,0.131c-0.003,0.029-0.038-0.007-0.032,0.025c0.01,0.054,0.044,0.158,0.043,0.157
	c-0.021-0.029-0.132-0.155-0.153-0.184c-0.022-0.03,0.023-0.061,0-0.091c-0.027-0.037-0.168-0.213-0.197-0.25
	c-0.017-0.02,0.076-0.122,0.06-0.142c-0.026-0.035-0.054-0.003-0.078-0.04c-0.015-0.026-0.095,0.043-0.109,0.018
	c-0.021-0.031-0.012-0.05-0.032-0.079c-0.016-0.023,0.078-0.096,0.06-0.116c-0.016-0.018-0.041-0.028-0.039-0.053
	c0.005-0.041-0.104-0.018-0.134-0.048c-0.053-0.054-0.092-0.14-0.148-0.185c-0.059-0.047-0.086-0.106-0.141-0.154
	c-0.025-0.024-0.184-0.075-0.104-0.145c0.019-0.017,0.066-0.078,0.091-0.081c0.026-0.003,0.056,0.044,0.084,0.045
	c0.086,0.001,0.167,0.001,0.22-0.084c0.032-0.052,0.038-0.144,0.06-0.204c0.031-0.092,0.028-0.156,0.025-0.254
	c-0.006-0.155-0.108-0.308-0.186-0.436c-0.161-0.263-0.321-0.519-0.502-0.769c-0.094-0.13-0.182-0.261-0.28-0.387
	c-0.019-0.024-0.05-0.052-0.063-0.08c-0.011-0.023-0.002-0.064-0.02-0.082c-0.06-0.061-0.122-0.121-0.176-0.187
	c-0.114-0.14-0.229-0.29-0.378-0.389c-0.05-0.033-0.035-0.044-0.104-0.053c-0.025-0.003-0.057-0.07-0.072-0.092
	c-0.02-0.028-0.021-0.077-0.046-0.101c-0.024-0.024-0.096-0.033-0.13-0.045c0.095-0.061,0.095-0.107,0.124-0.215
	c0.118,0.039,0.239,0.085,0.364,0.1c0.084,0.009,0.153-0.013,0.231-0.042c0.04-0.015,0.053-0.138,0.081-0.137
	c0.142,0.009,0.281,0.024,0.423,0.04c0.021,0.002,0.091-0.111,0.127-0.129c0.061-0.029,0.119,0.037,0.173,0.072
	c-0.143,0.027-0.157,0.092-0.168,0.226c-0.003,0.052-0.023,0.106-0.035,0.157c-0.012,0.051,0.029,0.094-0.02,0.126
	c-0.041,0.027,0.025,0.241,0.028,0.309c0.006,0.107,0.034,0.208,0.088,0.299c0.07,0.116,0.124,0.201,0.222,0.294
	c0.076,0.072,0.155,0.121,0.217,0.212c0.032,0.048,0.062,0.097,0.093,0.146c0.025,0.039-0.074,0.076-0.098,0.051
	c-0.044-0.045-0.05-0.098-0.087-0.142c-0.034-0.039-0.1-0.066-0.139-0.106c0.034,0.076,0.07,0.146,0.11,0.219
	c0.047,0.083,0.093,0.088,0.19,0.089c-0.018,0.082-0.014,0.119,0.071,0.158c0.072,0.032,0.146,0.071,0.223,0.091
	c0.079,0.021,0.154,0.044,0.109,0.138c-0.011,0.023-0.042,0.061-0.062,0.077c-0.053,0.04-0.063-0.01-0.057,0.073
	c0.008,0.085,0.013,0.161,0.106,0.162c0.038,0,0.055-0.011,0.086-0.034c0.014-0.01,0.013-0.041,0.027-0.051
	c0.015-0.011,0.058,0.005,0.069-0.008c0.062-0.066-0.004-0.184-0.03-0.248c-0.032-0.076-0.061-0.122-0.06-0.205
	c0.086,0.02,0.218-0.012,0.287-0.066c0.07-0.055,0.067-0.204,0.09-0.294c0.073,0.017,0.055,0.211,0.092,0.212
	c0.068,0.001,0.09-0.009,0.131,0.044c0.026,0.034,0.052,0.069,0.026,0.108c-0.028,0.044-0.073,0.013-0.115,0.044
	c-0.041,0.03-0.091,0.021-0.142,0.023c-0.104,0.004-0.069,0.154-0.057,0.214c0.042,0.227,0.218,0.286,0.424,0.298
	c0.116,0.007,0.158-0.03,0.167-0.139c0.007-0.093,0.071-0.14,0.094-0.234c0.072,0.058,0.096,0.055,0.07,0.144
	c0.054,0.005,0.095,0.005,0.147-0.003c0.018-0.003,0.108,0.095,0.135,0.111c0.041,0.026,0.073-0.073,0.127-0.031
	c0.052,0.039,0.078,0.105,0.112,0.159c0.014,0.022,0.106,0.009,0.139,0.027c0.055,0.03,0.099,0.027,0.159,0.024
	c0.048-0.003,0.116-0.015,0.16-0.001c0.064,0.019,0.084,0.066,0.155,0.067c0.043,0,0.13,0,0.163,0.028
	c0.045,0.038,0.044,0.123,0.043,0.175c-0.001,0.131,0.07,0.221,0.186,0.261c0.109,0.038,0.218-0.023,0.325,0.009
	c0.06,0.018,0.22,0.152,0.227,0.215c-0.037,0.01-0.073,0.013-0.11,0.016c-0.048,0.003-0.059,0.059-0.081,0.099
	c-0.07-0.026-0.017-0.066-0.049-0.105c-0.021-0.024-0.04-0.048-0.061-0.073c-0.016-0.019-0.021,0.028-0.038,0.005
	c-0.072-0.1-0.157-0.036-0.202,0.051c0.096-0.058,0.213,0.079,0.238,0.153c-0.118-0.03-0.187-0.008-0.268,0.081
	c0.059-0.022,0.261-0.068,0.304,0.004c0.056,0.092,0.137,0.176,0.025,0.248c0.058,0.033,0.106,0.062,0.156,0.107
	c0.024,0.023,0,0.141-0.004,0.175c0.038,0.002,0.08,0.011,0.117,0.008c0.042-0.005,0.076-0.038,0.112-0.045
	c0.094-0.019,0.155,0.001,0.22,0.062c0.049-0.076-0.117-0.158-0.18-0.159c-0.047,0-0.094-0.001-0.141-0.002
	c-0.068,0-0.058-0.013-0.073-0.079c0.057,0.015,0.131,0.02,0.048-0.033c-0.03-0.019-0.055-0.121-0.072-0.156
	c0.063,0.011,0.124,0.089,0.188,0.117c0.08,0.035,0.119,0.043,0.202,0.025c-0.026-0.039-0.089-0.094-0.024-0.131
	c0.03-0.017,0.135,0.014,0.169,0.022c-0.059-0.134,0.045-0.131,0.158-0.135c-0.002-0.026-0.01-0.059-0.006-0.085
	c0.011-0.002,0.021-0.004,0.032-0.006c0.004-0.018-0.002-0.042-0.005-0.06c-0.001-0.008,0.133-0.026,0.156-0.055
	c0.008,0.024,0.017,0.048,0.025,0.072c-0.086,0.02-0.12,0.017-0.138,0.107c-0.012,0.069-0.049,0.122,0.023,0.171
	c-0.112,0.013-0.067,0.108-0.034,0.178c0.054,0.107,0.106,0.154,0.218,0.196c-0.047,0.089-0.146,0.029-0.221-0.003
	c0.026,0.05,0.046,0.105,0.084,0.147c0.059,0.065,0.05,0.096,0.081,0.174c0.03,0.075,0.089,0.103,0.142,0.157
	c0.035,0.037,0.106,0.01,0.149-0.01c0.024,0.109,0.09,0.181,0.127,0.281c0.039,0.105-0.024,0.18,0.04,0.283
	c0.022,0.036,0.061,0.031,0.102,0.032c0.062,0,0.079,0.031,0.102,0.092c0.035,0.098,0.023,0.211,0.021,0.313
	c-0.147-0.056-0.125,0.103-0.125,0.205c-0.002,0.037,0.053,0.097,0.062,0.14c0.018,0.078-0.03,0.084-0.093,0.13
	c0.021-0.007,0.2-0.048,0.2,0c-0.002,0.065-0.002,0.13-0.002,0.195c-0.003,0.142,0.061,0.214,0.143,0.322
	c-0.081,0.059-0.119,0.047-0.221,0.041c-0.021-0.002-0.017-0.089-0.03-0.105c-0.02-0.025-0.083-0.04-0.112-0.054
	c-0.001,0.086-0.007,0.114-0.051,0.187c-0.029,0.049-0.068,0.105-0.078,0.161c-0.028,0.16-0.009,0.262,0.071,0.403
	c0.053,0.092,0.105,0.263,0.23,0.278c0.108,0.012,0.136-0.003,0.183,0.094c0.029,0.063,0.036,0.135,0.064,0.197
	c0.121,0.263,0.288,0.504,0.517,0.686c0.058,0.047,0.113,0.054,0.187,0.072c0.095,0.024,0.008,0.115-0.018,0.152
	c-0.028,0.042-0.115,0.024-0.15,0.068c-0.064,0.08-0.018,0.097,0.039,0.18c-0.002-0.041-0.005-0.081-0.007-0.122
	c0.044-0.007,0.055,0.027,0.079,0.059c0.026,0.035,0.07,0.049,0.109,0.069c0.063,0.032,0.15,0.017,0.199,0.068
	c-0.064,0.023-0.121,0.05-0.19,0.049c-0.072,0-0.13,0.029-0.198,0.033c-0.078,0.005-0.152-0.007-0.134,0.102
	c0.014,0.085,0.088,0.094,0.154,0.115c-0.04,0.102-0.091,0.193-0.15,0.285c-0.009-0.072-0.034-0.416-0.169-0.35
	c0.019,0.1,0.021,0.21,0.05,0.306c0.012,0.039,0.06,0.133,0.045,0.171c-0.025,0.069-0.033,0.111-0.034,0.185
	c-0.001,0.058-0.001,0.104,0.016,0.159c0.016,0.058,0.092,0.079,0.142,0.108c0.005,0.003,0.106-0.062,0.127-0.069
	c0.06-0.025,0.118-0.029,0.183-0.037c-0.018,0.046-0.02,0.089-0.066,0.107c-0.049,0.019-0.111,0.005-0.154,0.026
	c-0.06,0.029-0.077,0.054-0.116,0.108c-0.01,0.014-0.041,0.003-0.048,0.014c-0.013,0.019-0.008,0.073-0.01,0.096
	c0.029-0.003,0.058-0.005,0.087-0.008c0.009,0.116,0.009,0.239,0.039,0.352c0.015,0.061,0.021,0.14,0.05,0.196
	c0.029,0.059,0.092,0.113,0.134,0.163c0.05,0.06-0.052,0.109,0.053,0.124c0.024,0.004,0.183,0.015,0.183,0.021
	c-0.001,0.054,0.013,0.131-0.067,0.106c-0.066-0.022-0.134-0.04-0.202-0.057c0.011,0.033,0.021,0.065,0.03,0.097
	c0.013,0.038,0.095,0.035,0.121,0.062c0.067,0.068,0.049,0.143,0.035,0.225c0.048-0.005,0.133,0.011,0.128-0.046
	c-0.006-0.068-0.029-0.075-0.083-0.118c0.092-0.064,0.101-0.153,0.125-0.259c0.045,0.056,0.067,0.086,0.129,0.116
	c0.079,0.037,0.066,0.14,0.006,0.19c0.088-0.003,0.071,0.04,0.077,0.114c0.016-0.038,0.03-0.075,0.044-0.113
	c0.021,0.021,0.041,0.041,0.061,0.062c0.03-0.078,0.017-0.111-0.005-0.193c-0.021-0.085,0.152-0.05,0.177-0.046
	c0.049,0.01,0.096,0.024,0.144,0.04c0.02,0.007,0.001,0.07-0.001,0.088c-0.002,0.024,0.024,0.038,0.025,0.061
	c0.002,0.041,0.005,0.082,0.007,0.123c0.044-0.005,0.095-0.003,0.137-0.018c0.084-0.029,0.082-0.04,0.135,0.032
	c0.027,0.036,0.105-0.052,0.129-0.052c0.028,0,0.119,0.053,0.141,0.074c0.055,0.057,0.181,0.146,0.2,0.225
	c0.028,0.111,0.041,0.225,0.071,0.335c0.02,0.067,0.019,0.085,0,0.153c-0.019,0.063-0.004,0.108,0.01,0.174
	c0.02,0.101,0.02,0.213,0.092,0.295c0.045,0.052,0.185,0.131,0.256,0.115c0.057-0.013,0.118-0.018,0.168-0.047
	c0.084-0.049,0.119-0.047,0.2,0.009c0.026-0.057,0.042-0.104,0.093-0.142c0.059-0.044,0.082-0.004,0.143,0.032
	c-0.037-0.066-0.047-0.134-0.079-0.197c-0.022-0.044-0.118-0.167-0.115-0.211c0.015-0.171,0.026-0.302-0.017-0.47
	c-0.021-0.081-0.032-0.156-0.078-0.225c-0.049-0.072-0.097-0.144-0.146-0.216c-0.043-0.062-0.095-0.133-0.094-0.211
	c0.001-0.065,0-0.056,0.063-0.058c0.049-0.001,0.098-0.003,0.146-0.004c-0.047-0.019-0.123-0.027-0.129-0.089
	c0.047,0.007,0.093,0.013,0.139,0.019c-0.024-0.013-0.212-0.106-0.1-0.105c0.092,0.001,0.131-0.03,0.207-0.079
	c0.038-0.025,0.003-0.164-0.042-0.179c-0.062-0.021-0.072,0.05-0.087,0.091c-0.016,0.044-0.055,0.046-0.098,0.063
	c0.021-0.078,0.038-0.142,0.101-0.195c0.08-0.068-0.027-0.099-0.08-0.146c-0.06-0.053-0.027-0.148-0.012-0.212
	c0.006-0.02,0.052-0.063,0.05-0.069c-0.014-0.041-0.027-0.083-0.04-0.125c0.092-0.005,0.121,0.019,0.122-0.077
	c0,0.013-0.12-0.048-0.136-0.07c-0.076-0.118-0.223-0.128-0.312-0.239c-0.048-0.058-0.06-0.143-0.058-0.217
	c0-0.095-0.004-0.129,0.097-0.155c0.078-0.021,0.117-0.013,0.178,0.037c0.07,0.057,0.07,0.085,0.088,0.174
	c0.006-0.021,0.021-0.04,0.027-0.06c0.045,0.052,0.065,0.072,0.129,0.097c-0.013-0.088,0.024-0.069,0.097-0.068
	c0.014,0,0.08,0.101,0.106,0.118c0.066,0.044,0.039,0.07,0.021,0.146c-0.013,0.056-0.012,0.089-0.038,0.145
	c0.057,0.023,0.203,0.027,0.219,0.088c0.012,0.052,0.033,0.084,0.001,0.127c-0.034,0.046-0.002,0.076,0.02,0.126
	c-0.038,0.005-0.075,0.011-0.112,0.016c0.03,0.091,0.056,0.032,0.12,0.062c0.021,0.011,0.095,0.091,0.095,0.114
	c-0.001,0.072-0.047,0.316,0.097,0.236c0.061-0.034,0.082-0.067,0.114-0.128c0.02-0.04,0.104-0.037,0.15-0.049
	c0.059-0.016,0.117-0.033,0.176-0.049c0.066-0.019,0.077-0.064,0.131-0.01c0.024,0.025,0.095,0.075,0.103,0.105
	c0.022,0.08-0.051,0.046-0.095,0.073c-0.057,0.035-0.105,0.062-0.167,0.085c-0.038,0.015-0.021,0.112-0.046,0.142
	c-0.037,0.046-0.1,0.035-0.14,0.093c-0.027,0.042-0.001,0.127-0.028,0.157c-0.058,0.063-0.083-0.031-0.07,0.09
	c0.009,0.087,0.028,0.088,0.102,0.136c-0.007-0.119-0.018-0.215,0.057-0.312c0.049,0.047,0.098,0.094,0.146,0.141
	c0.001-0.046,0.001-0.093,0.002-0.139c0.06,0.009,0.108,0.005,0.15,0.049c0.026,0.026,0.052,0.053,0.079,0.08
	c0.014,0.015-0.024,0.063-0.023,0.082c0,0.046,0.053,0.112,0.07,0.155c0.028,0.067,0.056,0.13,0.09,0.194
	c-0.051,0.005-0.079-0.01-0.077,0.044c0.001,0.044-0.014,0.134,0.011,0.172c0.036,0.056,0.049,0.061,0.029,0.123
	c-0.018,0.06-0.037,0.121-0.056,0.181c0.037-0.042,0.113-0.179,0.175-0.085c0.034,0.052,0.006,0.228,0.005,0.29
	c-0.002,0.164-0.004,0.328-0.006,0.491c-0.067-0.052-0.1-0.102-0.146-0.175c0.008,0.131,0.02,0.214,0.125,0.303
	c0.054,0.045,0.019,0.058,0.025,0.124c0.006,0.049,0.032,0.102,0.046,0.148c0.032,0.102,0.06,0.201,0.083,0.305
	c0.024,0.1,0.005,0.178,0.051,0.274c0.088,0.178,0.264,0.303,0.336,0.489c0.018,0.047,0.064,0.101,0.012,0.123
	c-0.052,0.022-0.094-0.032-0.131-0.07c-0.081-0.084-0.153-0.177-0.234-0.26c-0.001,0.042-0.008,0.082,0.01,0.12
	c0.021,0.043,0.068,0.087,0.021,0.113c-0.073,0.039-0.08,0.153-0.051,0.233c0.043,0.119,0.059,0.138,0.159,0.211
	c0.098,0.071,0.175,0.161,0.272,0.232c0.067,0.048,0.19,0.036,0.272,0.037c0.096,0.001,0.183-0.023,0.097-0.125
	c-0.047-0.056-0.181-0.01-0.252-0.042c-0.115-0.053-0.183-0.178-0.223-0.289c0.036-0.011,0.071-0.021,0.107-0.032
	c0.016-0.004,0.053,0.087,0.083,0.095c0.081,0.021,0.115,0.129,0.197,0.159c0.066,0.024,0.156,0.034,0.194,0.095
	c0.028,0.044,0.057,0.09,0.089,0.131c0.044,0.055,0.121,0.081,0.174,0.127c0.143,0.128,0.321,0.189,0.5,0.253
	c0.079,0.028,0.12,0.04,0.204,0.036c0.099-0.004,0.113,0.07,0.17,0.151c0.096,0.14,0.268,0.191,0.417,0.269
	c0.128,0.065,0.264,0.14,0.398,0.188c0.151,0.052,0.319,0.073,0.475,0.109c0.064,0.015,0.143,0.086,0.198,0.121
	c0.063,0.038,0.117,0.062,0.188,0.087c0.04,0.015,0.192,0.044,0.214,0.082c0.034,0.062,0.068,0.174,0.131,0.209
	c0.105,0.058,0.09,0.072,0.096,0.193c0.004,0.124,0.17,0.049,0.184-0.028c0.003-0.016-0.07-0.061-0.026-0.082
	c0.035-0.017,0.123,0.02,0.141-0.029c0.018-0.052-0.02-0.107,0.057-0.088c0.062,0.015,0.124,0.04,0.187,0.05
	c0.186,0.03,0.356-0.021,0.538-0.055c0.311-0.058,0.538-0.286,0.695-0.547c0.035-0.058,0.097-0.197,0.157-0.226
	c0.019-0.009,0.038,0.024,0.07,0.001c0.021-0.016,0.039-0.043,0.056-0.065c0.028-0.039,0.051-0.076,0.071-0.12
	c0.022-0.053,0.03-0.055,0.013-0.101c-0.024-0.061,0.098-0.109,0.132-0.143c0.038-0.04,0.014-0.129,0.047-0.157
	c0.022-0.019,0.108-0.015,0.137-0.019c0.095-0.013,0.202-0.026,0.293-0.058c0.045-0.016,0.131-0.037,0.162-0.072
	c0.032-0.035,0.047-0.119,0.063-0.164c0.151,0.086,0.313,0,0.332-0.179c0.002-0.017-0.009-0.086,0.01-0.086
	c0.041,0,0.082,0.002,0.123,0c0.085-0.003,0.169-0.005,0.255-0.004c0.082,0.001,0.16,0.009,0.241,0.02
	c0.034,0.004,0.068,0.006,0.102,0.009c0.036,0.004,0.069-0.038,0.104-0.041c0.066-0.007,0.158,0.045,0.228,0.053
	c0.089,0.01,0.163,0.031,0.248,0.057c-0.052,0.027-0.165,0.056-0.148,0.137c-0.001-0.001,0.105,0.18,0.088,0.176
	c0.201,0.052,0.391,0.085,0.562,0.21c0.038,0.027,0.183,0.114,0.193,0.154C89.153,42.965,89.037,43.126,89.006,43.171"/>
<path d="M121.846,100.006H0V0h121.846V100.006z M1.97,98.035h117.905V1.97H1.97V98.035z"/>
</svg>
