<?xml version="1.0" encoding="utf-8"?>
<!-- Generator: Adobe Illustrator 16.0.0, SVG Export Plug-In . SVG Version: 6.00 Build 0)  -->
<!DOCTYPE svg PUBLIC "-//W3C//DTD SVG 1.1//EN" "http://www.w3.org/Graphics/SVG/1.1/DTD/svg11.dtd">
<svg version="1.1" id="Layer_1" xmlns="http://www.w3.org/2000/svg" xmlns:xlink="http://www.w3.org/1999/xlink" x="0px" y="0px"
	 width="559.641px" height="117.789px" viewBox="0 0 559.641 117.789" enable-background="new 0 0 559.641 117.789"
	 xml:space="preserve">
<text transform="matrix(0.9856 0.169 -0.169 0.9856 173.6943 92.6094)" font-family="'OpenSans-Bold'" font-size="24">S</text>
<text transform="matrix(0.9899 0.1418 -0.1418 0.9899 186.6064 94.8613)" font-family="'OpenSans-Bold'" font-size="24">H</text>
<text transform="matrix(0.9937 0.1117 -0.1117 0.9937 204.6665 97.4355)" font-family="'OpenSans-Bold'" font-size="24">A</text>
<text transform="matrix(0.9965 0.0838 -0.0838 0.9965 220.9912 99.2676)" font-family="'OpenSans-Bold'" font-size="24">R</text>
<text transform="matrix(0.9983 0.0586 -0.0586 0.9983 236.689 100.5742)" font-family="'OpenSans-Bold'" font-size="24">E</text>
<text transform="matrix(0.9991 0.0417 -0.0417 0.9991 250.0591 101.3281)" font-family="'OpenSans-Bold'" font-size="24.0001"> </text>
<text transform="matrix(0.9999 0.017 -0.017 0.9999 256.1704 101.6865)" font-family="'OpenSans-Bold'" font-size="24">M</text>
<text transform="matrix(0.9999 -0.0154 0.0154 0.9999 278.8403 102.0078)" font-family="'OpenSans-Bold'" font-size="24">Y</text>
<text transform="matrix(0.9994 -0.0335 0.0335 0.9994 293.7461 101.7402)" font-family="'OpenSans-Bold'" font-size="24"> </text>
<text transform="matrix(0.9983 -0.0583 0.0583 0.9983 299.8691 101.6367)" font-family="'OpenSans-Bold'" font-size="24">M</text>
<text transform="matrix(0.9958 -0.092 0.092 0.9958 322.3447 100.2773)" font-family="'OpenSans-Bold'" font-size="24">A</text>
<text transform="matrix(0.993 -0.1182 0.1182 0.993 338.7139 98.75)" font-family="'OpenSans-Bold'" font-size="24">T</text>
<text transform="matrix(0.9897 -0.1434 0.1434 0.9897 352.4102 97.1289)" font-family="'OpenSans-Bold'" font-size="24">C</text>
<text transform="matrix(0.985 -0.1723 0.1723 0.985 367.4199 94.9785)" font-family="'OpenSans-Bold'" font-size="24">H</text>
<path fill="none" stroke="#000000" stroke-width="3" stroke-miterlimit="10" d="M442.492,92.044
	c-5.945,1.793-11.933,3.491-17.957,5.095c-46.959,12.493-96.297,19.15-147.188,19.15c-52.213,0-102.789-7.008-150.838-20.135
	c-3.332-0.91-6.651-1.849-9.958-2.817l0.012-0.062l13.21-42.129c0,0,5.007,1.46,7.869,2.18
	c44.707,11.243,91.509,17.214,139.705,17.214c46.561,0,91.819-5.572,135.146-16.088c5.568-1.351,11.441-2.876,16.945-4.389
	L442.492,92.044z"/>
<circle fill="none" stroke="#000000" stroke-width="3" stroke-miterlimit="10" cx="487.118" cy="41.877" r="40"/>
<path d="M482.92,59.949V44.436h-5.673v-7.736h5.673v-3.014c0-5.199,3.904-9.881,8.704-9.881h6.253v7.736h-6.253
	c-0.685,0-1.483,0.831-1.483,2.076v3.082h7.736v7.736h-7.736v15.514H482.92z"/>
<circle fill="none" stroke="#000000" stroke-width="3" stroke-miterlimit="10" cx="70.373" cy="41.877" r="40"/>
<path d="M64.559,56.945c-4.256,0-8.217-1.247-11.552-3.387c0.59,0.07,1.19,0.106,1.798,0.106c3.53,0,6.78-1.205,9.359-3.226
	c-3.298-0.062-6.081-2.24-7.04-5.234c0.46,0.088,0.933,0.135,1.418,0.135c0.687,0,1.353-0.092,1.986-0.264
	c-3.448-0.692-6.045-3.738-6.045-7.39c0-0.031,0-0.062,0-0.095c1.016,0.565,2.178,0.904,3.414,0.943
	c-2.022-1.353-3.353-3.658-3.353-6.272c0-1.381,0.372-2.676,1.02-3.789c3.717,4.56,9.27,7.56,15.533,7.874
	c-0.129-0.552-0.195-1.127-0.195-1.718c0-4.161,3.374-7.535,7.536-7.535c2.167,0,4.125,0.915,5.5,2.379
	c1.717-0.338,3.329-0.965,4.785-1.828c-0.562,1.76-1.757,3.236-3.313,4.17c1.524-0.183,2.977-0.588,4.328-1.188
	c-1.01,1.511-2.288,2.839-3.76,3.901C85.992,34.852,86,35.177,86,35.504C86,45.462,78.42,56.945,64.559,56.945"/>
<line fill="none" stroke="#000000" stroke-width="3" stroke-miterlimit="10" x1="463.686" y1="74.3" x2="439.702" y2="81.775"/>
<polyline fill="none" stroke="#000000" stroke-width="3" stroke-miterlimit="10" points="513.332,11.658 543.578,2.264 
	535.974,28.06 556.574,45.346 524.812,55.246 "/>
<polyline fill="none" stroke="#000000" stroke-width="3" stroke-miterlimit="10" points="423.277,52.001 412.345,43.025 
	448.399,31.827 "/>
<line fill="none" stroke="#000000" stroke-width="3" stroke-miterlimit="10" x1="93.838" y1="73.64" x2="119.939" y2="81.776"/>
<polyline fill="none" stroke="#000000" stroke-width="3" stroke-miterlimit="10" points="44.25,11.019 16.063,2.264 23.667,28.059 
	3.066,45.346 31.928,54.342 "/>
<polyline fill="none" stroke="#000000" stroke-width="3" stroke-miterlimit="10" points="136.363,52.001 147.296,43.025 
	108.908,31.102 "/>
</svg>
