<?xml version="1.0" encoding="utf-8"?>
<!-- Generator: Adobe Illustrator 16.0.0, SVG Export Plug-In . SVG Version: 6.00 Build 0)  -->
<!DOCTYPE svg PUBLIC "-//W3C//DTD SVG 1.1//EN" "http://www.w3.org/Graphics/SVG/1.1/DTD/svg11.dtd">
<svg version="1.1" id="Layer_1" xmlns="http://www.w3.org/2000/svg" xmlns:xlink="http://www.w3.org/1999/xlink" x="0px" y="0px"
	 width="49.267px" height="49.714px" viewBox="-0.001 0.001 49.267 49.714" enable-background="new -0.001 0.001 49.267 49.714"
	 xml:space="preserve">
<g>
	<path d="M22.031,47.058c-0.624-0.72-2.854-3.213-5.317-5.965c-3.195-3.571-6.817-7.618-7.79-8.755
		c-1.602-1.872-1.898-3.525-0.908-5.054c0.496-0.768,1.609-1.282,2.771-1.282c0.839,0,1.622,0.262,2.264,0.758l1.021,0.791
		c1.435,1.114,3.221,2.501,4.491,3.385c0.504,0.35,1.261,0.142,1.71-0.413c0.19-0.235,0.487-0.741,0.33-1.474
		c-0.538-2.505-4.296-23.718-4.518-25.189c-0.276-1.84,0.821-3.401,2.669-3.796c1.598-0.344,3.486,0.83,4.121,2.555
		c0.435,1.184,3.84,13.802,4.715,17.05c2.136,0.411,9.056,1.744,10.238,2.01c1.371,0.309,5.015,1.129,5.631,7.105
		c0.443,4.292,0.609,8.154,0.708,10.461c0.024,0.586,0.046,1.07,0.065,1.435c0.079,1.422,0.289,5.197-3.4,6.124
		c-2.531,0.636-11.243,2.63-13.406,2.873c-0.238,0.026-0.465,0.039-0.686,0.039l0,0C24.742,49.715,23.412,48.652,22.031,47.058z
		 M19.171,2.019c-0.391,0.083-1.281,0.401-1.109,1.543c0.208,1.389,3.99,22.717,4.494,25.067c0.242,1.129-0.024,2.277-0.73,3.151
		c-1.089,1.346-3.071,1.723-4.406,0.798c-1.314-0.914-3.123-2.319-4.576-3.448l-1.016-0.786c-0.365-0.283-0.769-0.342-1.042-0.342
		c-0.597,0-1.017,0.26-1.092,0.369c-0.246,0.381-0.66,1.019,0.749,2.666c0.958,1.12,4.572,5.159,7.761,8.722
		c2.473,2.763,4.712,5.266,5.339,5.989c1.442,1.666,2.292,2.098,3.657,1.939c1.91-0.214,10.406-2.137,13.143-2.824
		c1.74-0.438,2.014-1.883,1.893-4.074c-0.021-0.371-0.042-0.863-0.067-1.459c-0.099-2.284-0.263-6.109-0.698-10.342
		c-0.47-4.546-2.819-5.075-4.109-5.366c-1.314-0.295-10.668-2.09-10.763-2.108l-0.614-0.118l-0.163-0.604
		c-1.215-4.52-4.451-16.471-4.823-17.483c-0.298-0.808-1.088-1.308-1.648-1.308C19.286,2.001,19.228,2.007,19.171,2.019z"/>
</g>
<g>
	<path d="M1.327,19.251c3.415-3.036,9.174-6.699,12.837-8.166l-0.742-1.856c-3.908,1.563-9.805,5.31-13.423,8.528L1.327,19.251z"/>
</g>
<g>
	<path d="M47.211,11.566l0.77-1.847c-7.123-2.967-13.043-4.024-19.81-3.526l0.146,1.995C34.748,7.715,40.397,8.728,47.211,11.566z"
		/>
</g>
<g>
	<polygon points="42.83,14.396 49.266,11.163 45.852,4.2 44.057,5.08 46.598,10.265 41.932,12.608 	"/>
</g>
</svg>
