<?xml version="1.0" encoding="utf-8"?>
<!-- Generator: Adobe Illustrator 16.0.0, SVG Export Plug-In . SVG Version: 6.00 Build 0)  -->
<!DOCTYPE svg PUBLIC "-//W3C//DTD SVG 1.1//EN" "http://www.w3.org/Graphics/SVG/1.1/DTD/svg11.dtd">
<svg version="1.1" id="Layer_1" xmlns="http://www.w3.org/2000/svg" xmlns:xlink="http://www.w3.org/1999/xlink" x="0px" y="0px"
	 width="49.267px" height="49.714px" viewBox="-0.001 0.001 49.267 49.714" enable-background="new -0.001 0.001 49.267 49.714"
	 xml:space="preserve">
<g>
	<path d="M22.526,49.715L22.526,49.715c-0.22,0-0.447-0.013-0.685-0.039c-2.164-0.243-10.876-2.237-13.406-2.873
		c-3.689-0.927-3.48-4.702-3.401-6.124c0.02-0.364,0.041-0.849,0.066-1.435c0.099-2.307,0.265-6.169,0.708-10.461
		c0.617-5.977,4.26-6.796,5.631-7.105c1.183-0.266,8.103-1.599,10.238-2.01c0.875-3.248,4.281-15.866,4.715-17.05
		c0.635-1.725,2.523-2.899,4.121-2.555c1.848,0.396,2.945,1.957,2.669,3.796c-0.222,1.471-3.979,22.684-4.518,25.189
		c-0.157,0.732,0.14,1.238,0.33,1.474c0.449,0.555,1.206,0.763,1.71,0.413c1.271-0.884,3.057-2.271,4.491-3.385l1.021-0.791
		c0.642-0.496,1.425-0.758,2.264-0.758c1.161,0,2.274,0.515,2.771,1.282c0.99,1.528,0.693,3.182-0.908,5.054
		c-0.973,1.137-4.595,5.184-7.79,8.755c-2.463,2.752-4.693,5.245-5.317,5.965C25.853,48.652,24.523,49.715,22.526,49.715z
		 M29.917,2.001c-0.561,0-1.351,0.5-1.648,1.308c-0.372,1.012-3.608,12.964-4.823,17.483l-0.163,0.604l-0.615,0.118
		c-0.094,0.018-9.449,1.813-10.762,2.108c-1.291,0.291-3.64,0.82-4.109,5.366c-0.436,4.232-0.6,8.058-0.699,10.342
		c-0.025,0.596-0.046,1.088-0.067,1.459c-0.122,2.191,0.152,3.637,1.892,4.074c2.737,0.688,11.233,2.61,13.143,2.824
		c1.366,0.158,2.215-0.273,3.658-1.939c0.627-0.724,2.866-3.227,5.339-5.989c3.188-3.562,6.803-7.602,7.761-8.722
		c1.409-1.647,0.995-2.285,0.749-2.666c-0.075-0.109-0.495-0.369-1.092-0.369c-0.273,0-0.677,0.059-1.042,0.342l-1.016,0.786
		c-1.453,1.129-3.262,2.534-4.576,3.448c-1.335,0.925-3.317,0.548-4.406-0.798c-0.706-0.874-0.973-2.022-0.73-3.151
		c0.504-2.35,4.286-23.678,4.494-25.067c0.172-1.142-0.719-1.459-1.109-1.543C30.037,2.007,29.979,2.001,29.917,2.001z"/>
</g>
<g>
	<path d="M47.938,19.251c-3.415-3.036-9.174-6.699-12.837-8.166l0.742-1.856c3.908,1.563,9.805,5.31,13.423,8.528L47.938,19.251z"/>
</g>
<g>
	<path d="M2.053,11.566L1.285,9.72c7.122-2.967,13.042-4.024,19.809-3.526l-0.146,1.995C14.516,7.715,8.868,8.728,2.053,11.566z"/>
</g>
<g>
	<polygon points="6.435,14.396 -0.001,11.163 3.413,4.2 5.209,5.08 2.667,10.265 7.333,12.608 	"/>
</g>
</svg>
